<svg width="800" height="600" 
xmlns="http://www.w3.org/2000/svg">
  <defs>
    <style>
      .flow-arrow {
        stroke: #0066cc;
        stroke-width: 1.5;
        fill: none;
        stroke-linecap: round;
        stroke-linejoin: round;
      }
      .eye {
        fill: rgba(200, 200, 200, 0.3);
        stroke: rgba(100, 100, 100, 0.5);
        stroke-width: 2;
      }
    </style>
  </defs>
  
  <!-- Background -->
  <rect width="800" height="600" fill="#f8f9fa"/>
  
  <!-- Hurricane eye -->
  <circle cx="400.00" cy="300.00" 
          r="40.00" class="eye"/>
  
  <!-- Flow field arrows -->
  <g class="flow-field">
    <path d="M 25.00,25.00 L 25.18,25.13 M 25.11,25.12 L 25.18,25.13 L 25.14,25.06" class="flow-arrow"/>
    <path d="M 25.00,50.00 L 25.18,50.12 M 25.11,50.11 L 25.18,50.12 L 25.15,50.05" class="flow-arrow"/>
    <path d="M 25.00,75.00 L 25.19,75.11 M 25.12,75.10 L 25.19,75.11 L 25.15,75.05" class="flow-arrow"/>
    <path d="M 25.00,100.00 L 25.19,100.10 M 25.12,100.10 L 25.19,100.10 L 25.15,100.04" class="flow-arrow"/>
    <path d="M 25.00,125.00 L 25.20,125.09 M 25.13,125.09 L 25.20,125.09 L 25.15,125.03" class="flow-arrow"/>
    <path d="M 25.00,150.00 L 25.20,150.07 M 25.13,150.08 L 25.20,150.07 L 25.15,150.02" class="flow-arrow"/>
    <path d="M 25.00,175.00 L 25.21,175.06 M 25.14,175.07 L 25.21,175.06 L 25.15,175.01" class="flow-arrow"/>
    <path d="M 25.00,200.00 L 25.21,200.05 M 25.14,200.07 L 25.21,200.05 L 25.15,200.00" class="flow-arrow"/>
    <path d="M 25.00,225.00 L 25.21,225.04 M 25.14,225.06 L 25.21,225.04 L 25.15,224.99" class="flow-arrow"/>
    <path d="M 25.00,250.00 L 25.21,250.02 M 25.15,250.05 L 25.21,250.02 L 25.15,249.98" class="flow-arrow"/>
    <path d="M 25.00,275.00 L 25.21,275.01 M 25.15,275.04 L 25.21,275.01 L 25.15,274.97" class="flow-arrow"/>
    <path d="M 25.00,300.00 L 25.21,299.99 M 25.15,300.03 L 25.21,299.99 L 25.15,299.96" class="flow-arrow"/>
    <path d="M 25.00,325.00 L 25.21,324.98 M 25.15,325.02 L 25.21,324.98 L 25.15,324.95" class="flow-arrow"/>
    <path d="M 25.00,350.00 L 25.21,349.96 M 25.15,350.01 L 25.21,349.96 L 25.14,349.94" class="flow-arrow"/>
    <path d="M 25.00,375.00 L 25.21,374.95 M 25.15,375.00 L 25.21,374.95 L 25.14,374.93" class="flow-arrow"/>
    <path d="M 25.00,400.00 L 25.21,399.94 M 25.15,399.99 L 25.21,399.94 L 25.14,399.93" class="flow-arrow"/>
    <path d="M 25.00,425.00 L 25.20,424.93 M 25.15,424.98 L 25.20,424.93 L 25.13,424.92" class="flow-arrow"/>
    <path d="M 25.00,450.00 L 25.20,449.91 M 25.15,449.97 L 25.20,449.91 L 25.13,449.91" class="flow-arrow"/>
    <path d="M 25.00,475.00 L 25.19,474.90 M 25.15,474.96 L 25.19,474.90 L 25.12,474.90" class="flow-arrow"/>
    <path d="M 25.00,500.00 L 25.19,499.89 M 25.15,499.95 L 25.19,499.89 L 25.12,499.90" class="flow-arrow"/>
    <path d="M 25.00,525.00 L 25.18,524.88 M 25.15,524.95 L 25.18,524.88 L 25.11,524.89" class="flow-arrow"/>
    <path d="M 25.00,550.00 L 25.18,549.87 M 25.14,549.94 L 25.18,549.87 L 25.11,549.89" class="flow-arrow"/>
    <path d="M 25.00,575.00 L 25.17,574.87 M 25.14,574.93 L 25.17,574.87 L 25.10,574.88" class="flow-arrow"/>
    <path d="M 50.00,25.00 L 50.17,25.13 M 50.10,25.12 L 50.17,25.13 L 50.14,25.07" class="flow-arrow"/>
    <path d="M 50.00,50.00 L 50.18,50.12 M 50.11,50.11 L 50.18,50.12 L 50.14,50.06" class="flow-arrow"/>
    <path d="M 50.00,75.00 L 50.19,75.11 M 50.11,75.11 L 50.19,75.11 L 50.15,75.05" class="flow-arrow"/>
    <path d="M 50.00,100.00 L 50.19,100.10 M 50.12,100.10 L 50.19,100.10 L 50.15,100.04" class="flow-arrow"/>
    <path d="M 50.00,125.00 L 50.20,125.09 M 50.12,125.09 L 50.20,125.09 L 50.15,125.03" class="flow-arrow"/>
    <path d="M 50.00,150.00 L 50.20,150.08 M 50.13,150.08 L 50.20,150.08 L 50.15,150.02" class="flow-arrow"/>
    <path d="M 50.00,175.00 L 50.20,175.07 M 50.13,175.08 L 50.20,175.07 L 50.15,175.02" class="flow-arrow"/>
    <path d="M 50.00,200.00 L 50.21,200.05 M 50.14,200.07 L 50.21,200.05 L 50.15,200.01" class="flow-arrow"/>
    <path d="M 50.00,225.00 L 50.21,225.04 M 50.14,225.06 L 50.21,225.04 L 50.15,224.99" class="flow-arrow"/>
    <path d="M 50.00,250.00 L 50.21,250.02 M 50.14,250.05 L 50.21,250.02 L 50.15,249.98" class="flow-arrow"/>
    <path d="M 50.00,275.00 L 50.21,275.01 M 50.15,275.04 L 50.21,275.01 L 50.15,274.97" class="flow-arrow"/>
    <path d="M 50.00,300.00 L 50.21,299.99 M 50.15,300.03 L 50.21,299.99 L 50.15,299.96" class="flow-arrow"/>
    <path d="M 50.00,325.00 L 50.21,324.98 M 50.15,325.02 L 50.21,324.98 L 50.14,324.95" class="flow-arrow"/>
    <path d="M 50.00,350.00 L 50.21,349.96 M 50.15,350.01 L 50.21,349.96 L 50.14,349.94" class="flow-arrow"/>
    <path d="M 50.00,375.00 L 50.21,374.95 M 50.15,374.99 L 50.21,374.95 L 50.14,374.93" class="flow-arrow"/>
    <path d="M 50.00,400.00 L 50.20,399.93 M 50.15,399.98 L 50.20,399.93 L 50.13,399.92" class="flow-arrow"/>
    <path d="M 50.00,425.00 L 50.20,424.92 M 50.15,424.97 L 50.20,424.92 L 50.13,424.92" class="flow-arrow"/>
    <path d="M 50.00,450.00 L 50.19,449.91 M 50.15,449.97 L 50.19,449.91 L 50.12,449.91" class="flow-arrow"/>
    <path d="M 50.00,475.00 L 50.19,474.90 M 50.15,474.96 L 50.19,474.90 L 50.12,474.90" class="flow-arrow"/>
    <path d="M 50.00,500.00 L 50.18,499.89 M 50.15,499.95 L 50.18,499.89 L 50.11,499.89" class="flow-arrow"/>
    <path d="M 50.00,525.00 L 50.18,524.88 M 50.14,524.94 L 50.18,524.88 L 50.11,524.89" class="flow-arrow"/>
    <path d="M 50.00,550.00 L 50.17,549.87 M 50.14,549.93 L 50.17,549.87 L 50.10,549.88" class="flow-arrow"/>
    <path d="M 50.00,575.00 L 50.17,574.86 M 50.14,574.93 L 50.17,574.86 L 50.10,574.88" class="flow-arrow"/>
    <path d="M 75.00,25.00 L 75.17,25.14 M 75.10,25.12 L 75.17,25.14 L 75.14,25.07" class="flow-arrow"/>
    <path d="M 75.00,50.00 L 75.18,50.13 M 75.10,50.12 L 75.18,50.13 L 75.14,50.06" class="flow-arrow"/>
    <path d="M 75.00,75.00 L 75.18,75.12 M 75.11,75.11 L 75.18,75.12 L 75.14,75.06" class="flow-arrow"/>
    <path d="M 75.00,100.00 L 75.19,100.11 M 75.11,100.10 L 75.19,100.11 L 75.15,100.05" class="flow-arrow"/>
    <path d="M 75.00,125.00 L 75.19,125.10 M 75.12,125.10 L 75.19,125.10 L 75.15,125.04" class="flow-arrow"/>
    <path d="M 75.00,150.00 L 75.20,150.08 M 75.13,150.09 L 75.20,150.08 L 75.15,150.03" class="flow-arrow"/>
    <path d="M 75.00,175.00 L 75.20,175.07 M 75.13,175.08 L 75.20,175.07 L 75.15,175.02" class="flow-arrow"/>
    <path d="M 75.00,200.00 L 75.20,200.05 M 75.14,200.07 L 75.20,200.05 L 75.15,200.01" class="flow-arrow"/>
    <path d="M 75.00,225.00 L 75.21,225.04 M 75.14,225.06 L 75.21,225.04 L 75.15,225.00" class="flow-arrow"/>
    <path d="M 75.00,250.00 L 75.21,250.02 M 75.14,250.05 L 75.21,250.02 L 75.15,249.98" class="flow-arrow"/>
    <path d="M 75.00,275.00 L 75.21,275.01 M 75.15,275.04 L 75.21,275.01 L 75.15,274.97" class="flow-arrow"/>
    <path d="M 75.00,300.00 L 75.21,299.99 M 75.15,300.03 L 75.21,299.99 L 75.15,299.96" class="flow-arrow"/>
    <path d="M 75.00,325.00 L 75.21,324.97 M 75.15,325.01 L 75.21,324.97 L 75.14,324.95" class="flow-arrow"/>
    <path d="M 75.00,350.00 L 75.21,349.96 M 75.15,350.00 L 75.21,349.96 L 75.14,349.94" class="flow-arrow"/>
    <path d="M 75.00,375.00 L 75.20,374.94 M 75.15,374.99 L 75.20,374.94 L 75.13,374.93" class="flow-arrow"/>
    <path d="M 75.00,400.00 L 75.20,399.93 M 75.15,399.98 L 75.20,399.93 L 75.13,399.92" class="flow-arrow"/>
    <path d="M 75.00,425.00 L 75.20,424.92 M 75.15,424.97 L 75.20,424.92 L 75.12,424.91" class="flow-arrow"/>
    <path d="M 75.00,450.00 L 75.19,449.90 M 75.15,449.96 L 75.19,449.90 L 75.12,449.90" class="flow-arrow"/>
    <path d="M 75.00,475.00 L 75.19,474.89 M 75.15,474.95 L 75.19,474.89 L 75.11,474.90" class="flow-arrow"/>
    <path d="M 75.00,500.00 L 75.18,499.88 M 75.14,499.94 L 75.18,499.88 L 75.11,499.89" class="flow-arrow"/>
    <path d="M 75.00,525.00 L 75.17,524.87 M 75.14,524.94 L 75.17,524.87 L 75.10,524.88" class="flow-arrow"/>
    <path d="M 75.00,550.00 L 75.17,549.86 M 75.14,549.93 L 75.17,549.86 L 75.10,549.88" class="flow-arrow"/>
    <path d="M 75.00,575.00 L 75.16,574.86 M 75.14,574.92 L 75.16,574.86 L 75.09,574.87" class="flow-arrow"/>
    <path d="M 100.00,25.00 L 100.16,25.14 M 100.09,25.12 L 100.16,25.14 L 100.14,25.07" class="flow-arrow"/>
    <path d="M 100.00,50.00 L 100.17,50.13 M 100.10,50.12 L 100.17,50.13 L 100.14,50.07" class="flow-arrow"/>
    <path d="M 100.00,75.00 L 100.18,75.12 M 100.10,75.11 L 100.18,75.12 L 100.14,75.06" class="flow-arrow"/>
    <path d="M 100.00,100.00 L 100.18,100.11 M 100.11,100.11 L 100.18,100.11 L 100.14,100.05" class="flow-arrow"/>
    <path d="M 100.00,125.00 L 100.19,125.10 M 100.12,125.10 L 100.19,125.10 L 100.15,125.04" class="flow-arrow"/>
    <path d="M 100.00,150.00 L 100.19,150.09 M 100.12,150.09 L 100.19,150.09 L 100.15,150.03" class="flow-arrow"/>
    <path d="M 100.00,175.00 L 100.20,175.07 M 100.13,175.08 L 100.20,175.07 L 100.15,175.02" class="flow-arrow"/>
    <path d="M 100.00,200.00 L 100.20,200.06 M 100.13,200.07 L 100.20,200.06 L 100.15,200.01" class="flow-arrow"/>
    <path d="M 100.00,225.00 L 100.21,225.04 M 100.14,225.06 L 100.21,225.04 L 100.15,225.00" class="flow-arrow"/>
    <path d="M 100.00,250.00 L 100.21,250.02 M 100.14,250.05 L 100.21,250.02 L 100.15,249.99" class="flow-arrow"/>
    <path d="M 100.00,275.00 L 100.21,275.01 M 100.14,275.04 L 100.21,275.01 L 100.15,274.97" class="flow-arrow"/>
    <path d="M 100.00,300.00 L 100.21,299.99 M 100.15,300.02 L 100.21,299.99 L 100.14,299.96" class="flow-arrow"/>
    <path d="M 100.00,325.00 L 100.21,324.97 M 100.15,325.01 L 100.21,324.97 L 100.14,324.95" class="flow-arrow"/>
    <path d="M 100.00,350.00 L 100.20,349.96 M 100.15,350.00 L 100.20,349.96 L 100.14,349.94" class="flow-arrow"/>
    <path d="M 100.00,375.00 L 100.20,374.94 M 100.15,374.99 L 100.20,374.94 L 100.13,374.93" class="flow-arrow"/>
    <path d="M 100.00,400.00 L 100.20,399.92 M 100.15,399.98 L 100.20,399.92 L 100.13,399.92" class="flow-arrow"/>
    <path d="M 100.00,425.00 L 100.19,424.91 M 100.15,424.97 L 100.19,424.91 L 100.12,424.91" class="flow-arrow"/>
    <path d="M 100.00,450.00 L 100.19,449.90 M 100.14,449.96 L 100.19,449.90 L 100.11,449.90" class="flow-arrow"/>
    <path d="M 100.00,475.00 L 100.18,474.89 M 100.14,474.95 L 100.18,474.89 L 100.11,474.89" class="flow-arrow"/>
    <path d="M 100.00,500.00 L 100.17,499.88 M 100.14,499.94 L 100.17,499.88 L 100.10,499.89" class="flow-arrow"/>
    <path d="M 100.00,525.00 L 100.17,524.87 M 100.14,524.93 L 100.17,524.87 L 100.10,524.88" class="flow-arrow"/>
    <path d="M 100.00,550.00 L 100.16,549.86 M 100.13,549.92 L 100.16,549.86 L 100.09,549.88" class="flow-arrow"/>
    <path d="M 100.00,575.00 L 100.16,574.85 M 100.13,574.92 L 100.16,574.85 L 100.09,574.87" class="flow-arrow"/>
    <path d="M 125.00,25.00 L 125.16,25.15 M 125.09,25.13 L 125.16,25.15 L 125.13,25.08" class="flow-arrow"/>
    <path d="M 125.00,50.00 L 125.16,50.14 M 125.09,50.12 L 125.16,50.14 L 125.14,50.07" class="flow-arrow"/>
    <path d="M 125.00,75.00 L 125.17,75.13 M 125.10,75.12 L 125.17,75.13 L 125.14,75.06" class="flow-arrow"/>
    <path d="M 125.00,100.00 L 125.18,100.12 M 125.11,100.11 L 125.18,100.12 L 125.14,100.06" class="flow-arrow"/>
    <path d="M 125.00,125.00 L 125.18,125.11 M 125.11,125.10 L 125.18,125.11 L 125.14,125.05" class="flow-arrow"/>
    <path d="M 125.00,150.00 L 125.19,150.09 M 125.12,150.09 L 125.19,150.09 L 125.15,150.04" class="flow-arrow"/>
    <path d="M 125.00,175.00 L 125.19,175.08 M 125.12,175.08 L 125.19,175.08 L 125.15,175.02" class="flow-arrow"/>
    <path d="M 125.00,200.00 L 125.20,200.06 M 125.13,200.07 L 125.20,200.06 L 125.15,200.01" class="flow-arrow"/>
    <path d="M 125.00,225.00 L 125.20,225.04 M 125.14,225.06 L 125.20,225.04 L 125.15,225.00" class="flow-arrow"/>
    <path d="M 125.00,250.00 L 125.20,250.02 M 125.14,250.05 L 125.20,250.02 L 125.15,249.99" class="flow-arrow"/>
    <path d="M 125.00,275.00 L 125.21,275.01 M 125.14,275.04 L 125.21,275.01 L 125.14,274.97" class="flow-arrow"/>
    <path d="M 125.00,300.00 L 125.21,299.99 M 125.15,300.02 L 125.21,299.99 L 125.14,299.96" class="flow-arrow"/>
    <path d="M 125.00,325.00 L 125.20,324.97 M 125.15,325.01 L 125.20,324.97 L 125.14,324.95" class="flow-arrow"/>
    <path d="M 125.00,350.00 L 125.20,349.95 M 125.15,350.00 L 125.20,349.95 L 125.13,349.94" class="flow-arrow"/>
    <path d="M 125.00,375.00 L 125.20,374.93 M 125.15,374.98 L 125.20,374.93 L 125.13,374.92" class="flow-arrow"/>
    <path d="M 125.00,400.00 L 125.19,399.92 M 125.15,399.97 L 125.19,399.92 L 125.12,399.91" class="flow-arrow"/>
    <path d="M 125.00,425.00 L 125.19,424.90 M 125.14,424.96 L 125.19,424.90 L 125.12,424.91" class="flow-arrow"/>
    <path d="M 125.00,450.00 L 125.18,449.89 M 125.14,449.95 L 125.18,449.89 L 125.11,449.90" class="flow-arrow"/>
    <path d="M 125.00,475.00 L 125.17,474.88 M 125.14,474.94 L 125.17,474.88 L 125.10,474.89" class="flow-arrow"/>
    <path d="M 125.00,500.00 L 125.17,499.87 M 125.14,499.93 L 125.17,499.87 L 125.10,499.88" class="flow-arrow"/>
    <path d="M 125.00,525.00 L 125.16,524.86 M 125.13,524.93 L 125.16,524.86 L 125.09,524.88" class="flow-arrow"/>
    <path d="M 125.00,550.00 L 125.15,549.85 M 125.13,549.92 L 125.15,549.85 L 125.09,549.87" class="flow-arrow"/>
    <path d="M 125.00,575.00 L 125.15,574.84 M 125.13,574.91 L 125.15,574.84 L 125.08,574.87" class="flow-arrow"/>
    <path d="M 150.00,25.00 L 150.15,25.15 M 150.08,25.13 L 150.15,25.15 L 150.13,25.09" class="flow-arrow"/>
    <path d="M 150.00,50.00 L 150.16,50.15 M 150.09,50.12 L 150.16,50.15 L 150.13,50.08" class="flow-arrow"/>
    <path d="M 150.00,75.00 L 150.16,75.14 M 150.09,75.12 L 150.16,75.14 L 150.13,75.07" class="flow-arrow"/>
    <path d="M 150.00,100.00 L 150.17,100.12 M 150.10,100.11 L 150.17,100.12 L 150.14,100.06" class="flow-arrow"/>
    <path d="M 150.00,125.00 L 150.18,125.11 M 150.11,125.10 L 150.18,125.11 L 150.14,125.05" class="flow-arrow"/>
    <path d="M 150.00,150.00 L 150.18,150.10 M 150.11,150.10 L 150.18,150.10 L 150.14,150.04" class="flow-arrow"/>
    <path d="M 150.00,175.00 L 150.19,175.08 M 150.12,175.09 L 150.19,175.08 L 150.14,175.03" class="flow-arrow"/>
    <path d="M 150.00,200.00 L 150.19,200.06 M 150.13,200.07 L 150.19,200.06 L 150.15,200.02" class="flow-arrow"/>
    <path d="M 150.00,225.00 L 150.20,225.04 M 150.13,225.06 L 150.20,225.04 L 150.15,225.00" class="flow-arrow"/>
    <path d="M 150.00,250.00 L 150.20,250.03 M 150.14,250.05 L 150.20,250.03 L 150.14,249.99" class="flow-arrow"/>
    <path d="M 150.00,275.00 L 150.20,275.00 M 150.14,275.03 L 150.20,275.00 L 150.14,274.97" class="flow-arrow"/>
    <path d="M 150.00,300.00 L 150.20,299.98 M 150.14,300.02 L 150.20,299.98 L 150.14,299.96" class="flow-arrow"/>
    <path d="M 150.00,325.00 L 150.20,324.96 M 150.14,325.01 L 150.20,324.96 L 150.13,324.95" class="flow-arrow"/>
    <path d="M 150.00,350.00 L 150.20,349.95 M 150.14,349.99 L 150.20,349.95 L 150.13,349.93" class="flow-arrow"/>
    <path d="M 150.00,375.00 L 150.19,374.93 M 150.14,374.98 L 150.19,374.93 L 150.12,374.92" class="flow-arrow"/>
    <path d="M 150.00,400.00 L 150.18,399.91 M 150.14,399.97 L 150.18,399.91 L 150.12,399.91" class="flow-arrow"/>
    <path d="M 150.00,425.00 L 150.18,424.90 M 150.14,424.95 L 150.18,424.90 L 150.11,424.90" class="flow-arrow"/>
    <path d="M 150.00,450.00 L 150.17,449.88 M 150.14,449.94 L 150.17,449.88 L 150.10,449.89" class="flow-arrow"/>
    <path d="M 150.00,475.00 L 150.16,474.87 M 150.13,474.94 L 150.16,474.87 L 150.10,474.89" class="flow-arrow"/>
    <path d="M 150.00,500.00 L 150.16,499.86 M 150.13,499.93 L 150.16,499.86 L 150.09,499.88" class="flow-arrow"/>
    <path d="M 150.00,525.00 L 150.15,524.85 M 150.13,524.92 L 150.15,524.85 L 150.08,524.87" class="flow-arrow"/>
    <path d="M 150.00,550.00 L 150.15,549.84 M 150.12,549.91 L 150.15,549.84 L 150.08,549.87" class="flow-arrow"/>
    <path d="M 150.00,575.00 L 150.14,574.84 M 150.12,574.91 L 150.14,574.84 L 150.07,574.86" class="flow-arrow"/>
    <path d="M 175.00,25.00 L 175.14,25.16 M 175.07,25.13 L 175.14,25.16 L 175.12,25.09" class="flow-arrow"/>
    <path d="M 175.00,50.00 L 175.15,50.15 M 175.08,50.13 L 175.15,50.15 L 175.13,50.08" class="flow-arrow"/>
    <path d="M 175.00,75.00 L 175.16,75.14 M 175.09,75.12 L 175.16,75.14 L 175.13,75.08" class="flow-arrow"/>
    <path d="M 175.00,100.00 L 175.16,100.13 M 175.09,100.12 L 175.16,100.13 L 175.13,100.07" class="flow-arrow"/>
    <path d="M 175.00,125.00 L 175.17,125.12 M 175.10,125.11 L 175.17,125.12 L 175.14,125.06" class="flow-arrow"/>
    <path d="M 175.00,150.00 L 175.18,150.10 M 175.11,150.10 L 175.18,150.10 L 175.14,150.05" class="flow-arrow"/>
    <path d="M 175.00,175.00 L 175.18,175.09 M 175.12,175.09 L 175.18,175.09 L 175.14,175.03" class="flow-arrow"/>
    <path d="M 175.00,200.00 L 175.19,200.07 M 175.12,200.08 L 175.19,200.07 L 175.14,200.02" class="flow-arrow"/>
    <path d="M 175.00,225.00 L 175.19,225.05 M 175.13,225.06 L 175.19,225.05 L 175.14,225.00" class="flow-arrow"/>
    <path d="M 175.00,250.00 L 175.20,250.03 M 175.13,250.05 L 175.20,250.03 L 175.14,249.99" class="flow-arrow"/>
    <path d="M 175.00,275.00 L 175.20,275.00 M 175.14,275.03 L 175.20,275.00 L 175.14,274.97" class="flow-arrow"/>
    <path d="M 175.00,300.00 L 175.20,299.98 M 175.14,300.02 L 175.20,299.98 L 175.14,299.96" class="flow-arrow"/>
    <path d="M 175.00,325.00 L 175.19,324.96 M 175.14,325.00 L 175.19,324.96 L 175.13,324.94" class="flow-arrow"/>
    <path d="M 175.00,350.00 L 175.19,349.94 M 175.14,349.99 L 175.19,349.94 L 175.12,349.93" class="flow-arrow"/>
    <path d="M 175.00,375.00 L 175.18,374.92 M 175.14,374.97 L 175.18,374.92 L 175.12,374.92" class="flow-arrow"/>
    <path d="M 175.00,400.00 L 175.18,399.90 M 175.14,399.96 L 175.18,399.90 L 175.11,399.91" class="flow-arrow"/>
    <path d="M 175.00,425.00 L 175.17,424.89 M 175.14,424.95 L 175.17,424.89 L 175.10,424.90" class="flow-arrow"/>
    <path d="M 175.00,450.00 L 175.16,449.88 M 175.13,449.94 L 175.16,449.88 L 175.10,449.89" class="flow-arrow"/>
    <path d="M 175.00,475.00 L 175.16,474.86 M 175.13,474.93 L 175.16,474.86 L 175.09,474.88" class="flow-arrow"/>
    <path d="M 175.00,500.00 L 175.15,499.85 M 175.13,499.92 L 175.15,499.85 L 175.08,499.88" class="flow-arrow"/>
    <path d="M 175.00,525.00 L 175.14,524.84 M 175.12,524.91 L 175.14,524.84 L 175.08,524.87" class="flow-arrow"/>
    <path d="M 175.00,550.00 L 175.14,549.84 M 175.12,549.91 L 175.14,549.84 L 175.07,549.87" class="flow-arrow"/>
    <path d="M 175.00,575.00 L 175.13,574.83 M 175.12,574.90 L 175.13,574.83 L 175.06,574.86" class="flow-arrow"/>
    <path d="M 200.00,25.00 L 200.13,25.17 M 200.07,25.14 L 200.13,25.17 L 200.12,25.10" class="flow-arrow"/>
    <path d="M 200.00,50.00 L 200.14,50.16 M 200.07,50.13 L 200.14,50.16 L 200.12,50.09" class="flow-arrow"/>
    <path d="M 200.00,75.00 L 200.15,75.15 M 200.08,75.13 L 200.15,75.15 L 200.12,75.08" class="flow-arrow"/>
    <path d="M 200.00,100.00 L 200.15,100.14 M 200.09,100.12 L 200.15,100.14 L 200.13,100.07" class="flow-arrow"/>
    <path d="M 200.00,125.00 L 200.16,125.12 M 200.10,125.11 L 200.16,125.12 L 200.13,125.06" class="flow-arrow"/>
    <path d="M 200.00,150.00 L 200.17,150.11 M 200.10,150.10 L 200.17,150.11 L 200.14,150.05" class="flow-arrow"/>
    <path d="M 200.00,175.00 L 200.18,175.09 M 200.11,175.09 L 200.18,175.09 L 200.14,175.04" class="flow-arrow"/>
    <path d="M 200.00,200.00 L 200.18,200.07 M 200.12,200.08 L 200.18,200.07 L 200.14,200.02" class="flow-arrow"/>
    <path d="M 200.00,225.00 L 200.19,225.05 M 200.13,225.06 L 200.19,225.05 L 200.14,225.01" class="flow-arrow"/>
    <path d="M 200.00,250.00 L 200.19,250.03 M 200.13,250.05 L 200.19,250.03 L 200.14,249.99" class="flow-arrow"/>
    <path d="M 200.00,275.00 L 200.19,275.00 M 200.14,275.03 L 200.19,275.00 L 200.14,274.97" class="flow-arrow"/>
    <path d="M 200.00,300.00 L 200.19,299.98 M 200.14,300.01 L 200.19,299.98 L 200.13,299.95" class="flow-arrow"/>
    <path d="M 200.00,325.00 L 200.19,324.95 M 200.14,325.00 L 200.19,324.95 L 200.12,324.94" class="flow-arrow"/>
    <path d="M 200.00,350.00 L 200.18,349.93 M 200.14,349.98 L 200.18,349.93 L 200.12,349.92" class="flow-arrow"/>
    <path d="M 200.00,375.00 L 200.18,374.91 M 200.14,374.96 L 200.18,374.91 L 200.11,374.91" class="flow-arrow"/>
    <path d="M 200.00,400.00 L 200.17,399.89 M 200.13,399.95 L 200.17,399.89 L 200.10,399.90" class="flow-arrow"/>
    <path d="M 200.00,425.00 L 200.16,424.88 M 200.13,424.94 L 200.16,424.88 L 200.09,424.89" class="flow-arrow"/>
    <path d="M 200.00,450.00 L 200.15,449.87 M 200.13,449.93 L 200.15,449.87 L 200.09,449.88" class="flow-arrow"/>
    <path d="M 200.00,475.00 L 200.14,474.86 M 200.12,474.92 L 200.14,474.86 L 200.08,474.88" class="flow-arrow"/>
    <path d="M 200.00,500.00 L 200.14,499.85 M 200.12,499.91 L 200.14,499.85 L 200.07,499.87" class="flow-arrow"/>
    <path d="M 200.00,525.00 L 200.13,524.84 M 200.12,524.91 L 200.13,524.84 L 200.07,524.87" class="flow-arrow"/>
    <path d="M 200.00,550.00 L 200.12,549.83 M 200.11,549.90 L 200.12,549.83 L 200.06,549.86" class="flow-arrow"/>
    <path d="M 200.00,575.00 L 200.12,574.82 M 200.11,574.89 L 200.12,574.82 L 200.06,574.86" class="flow-arrow"/>
    <path d="M 225.00,25.00 L 225.12,25.17 M 225.06,25.14 L 225.12,25.17 L 225.11,25.10" class="flow-arrow"/>
    <path d="M 225.00,50.00 L 225.13,50.16 M 225.06,50.13 L 225.13,50.16 L 225.11,50.10" class="flow-arrow"/>
    <path d="M 225.00,75.00 L 225.14,75.16 M 225.07,75.13 L 225.14,75.16 L 225.12,75.09" class="flow-arrow"/>
    <path d="M 225.00,100.00 L 225.14,100.14 M 225.08,100.12 L 225.14,100.14 L 225.12,100.08" class="flow-arrow"/>
    <path d="M 225.00,125.00 L 225.15,125.13 M 225.09,125.11 L 225.15,125.13 L 225.13,125.07" class="flow-arrow"/>
    <path d="M 225.00,150.00 L 225.16,150.12 M 225.10,150.11 L 225.16,150.12 L 225.13,150.06" class="flow-arrow"/>
    <path d="M 225.00,175.00 L 225.17,175.10 M 225.11,175.09 L 225.17,175.10 L 225.13,175.04" class="flow-arrow"/>
    <path d="M 225.00,200.00 L 225.18,200.07 M 225.11,200.08 L 225.18,200.07 L 225.14,200.03" class="flow-arrow"/>
    <path d="M 225.00,225.00 L 225.18,225.05 M 225.12,225.06 L 225.18,225.05 L 225.14,225.01" class="flow-arrow"/>
    <path d="M 225.00,250.00 L 225.19,250.02 M 225.13,250.04 L 225.19,250.02 L 225.14,249.99" class="flow-arrow"/>
    <path d="M 225.00,275.00 L 225.19,275.00 M 225.13,275.03 L 225.19,275.00 L 225.13,274.97" class="flow-arrow"/>
    <path d="M 225.00,300.00 L 225.19,299.97 M 225.13,300.01 L 225.19,299.97 L 225.12,299.95" class="flow-arrow"/>
    <path d="M 225.00,325.00 L 225.18,324.94 M 225.13,324.99 L 225.18,324.94 L 225.12,324.93" class="flow-arrow"/>
    <path d="M 225.00,350.00 L 225.17,349.92 M 225.13,349.97 L 225.17,349.92 L 225.11,349.92" class="flow-arrow"/>
    <path d="M 225.00,375.00 L 225.16,374.90 M 225.13,374.96 L 225.16,374.90 L 225.10,374.91" class="flow-arrow"/>
    <path d="M 225.00,400.00 L 225.16,399.88 M 225.13,399.94 L 225.16,399.88 L 225.09,399.90" class="flow-arrow"/>
    <path d="M 225.00,425.00 L 225.15,424.87 M 225.12,424.93 L 225.15,424.87 L 225.08,424.89" class="flow-arrow"/>
    <path d="M 225.00,450.00 L 225.14,449.86 M 225.12,449.92 L 225.14,449.86 L 225.08,449.88" class="flow-arrow"/>
    <path d="M 225.00,475.00 L 225.13,474.85 M 225.11,474.91 L 225.13,474.85 L 225.07,474.87" class="flow-arrow"/>
    <path d="M 225.00,500.00 L 225.12,499.84 M 225.11,499.90 L 225.12,499.84 L 225.06,499.87" class="flow-arrow"/>
    <path d="M 225.00,525.00 L 225.12,524.83 M 225.11,524.90 L 225.12,524.83 L 225.06,524.86" class="flow-arrow"/>
    <path d="M 225.00,550.00 L 225.11,549.82 M 225.10,549.89 L 225.11,549.82 L 225.05,549.86" class="flow-arrow"/>
    <path d="M 225.00,575.00 L 225.11,574.82 M 225.10,574.89 L 225.11,574.82 L 225.05,574.86" class="flow-arrow"/>
    <path d="M 250.00,25.00 L 250.11,25.18 M 250.05,25.14 L 250.11,25.18 L 250.10,25.11" class="flow-arrow"/>
    <path d="M 250.00,50.00 L 250.12,50.17 M 250.06,50.14 L 250.12,50.17 L 250.11,50.10" class="flow-arrow"/>
    <path d="M 250.00,75.00 L 250.12,75.16 M 250.06,75.13 L 250.12,75.16 L 250.11,75.10" class="flow-arrow"/>
    <path d="M 250.00,100.00 L 250.13,100.15 M 250.07,100.13 L 250.13,100.15 L 250.12,100.09" class="flow-arrow"/>
    <path d="M 250.00,125.00 L 250.14,125.14 M 250.08,125.12 L 250.14,125.14 L 250.12,125.08" class="flow-arrow"/>
    <path d="M 250.00,150.00 L 250.15,150.12 M 250.09,150.11 L 250.15,150.12 L 250.13,150.06" class="flow-arrow"/>
    <path d="M 250.00,175.00 L 250.16,175.10 M 250.10,175.10 L 250.16,175.10 L 250.13,175.05" class="flow-arrow"/>
    <path d="M 250.00,200.00 L 250.17,200.08 M 250.11,200.08 L 250.17,200.08 L 250.13,200.03" class="flow-arrow"/>
    <path d="M 250.00,225.00 L 250.18,225.05 M 250.12,225.06 L 250.18,225.05 L 250.13,225.01" class="flow-arrow"/>
    <path d="M 250.00,250.00 L 250.18,250.02 M 250.12,250.04 L 250.18,250.02 L 250.13,249.99" class="flow-arrow"/>
    <path d="M 250.00,275.00 L 250.18,274.99 M 250.13,275.02 L 250.18,274.99 L 250.13,274.96" class="flow-arrow"/>
    <path d="M 250.00,300.00 L 250.18,299.96 M 250.13,300.00 L 250.18,299.96 L 250.12,299.94" class="flow-arrow"/>
    <path d="M 250.00,325.00 L 250.17,324.93 M 250.13,324.98 L 250.17,324.93 L 250.11,324.93" class="flow-arrow"/>
    <path d="M 250.00,350.00 L 250.16,349.91 M 250.12,349.96 L 250.16,349.91 L 250.10,349.91" class="flow-arrow"/>
    <path d="M 250.00,375.00 L 250.15,374.89 M 250.12,374.94 L 250.15,374.89 L 250.09,374.90" class="flow-arrow"/>
    <path d="M 250.00,400.00 L 250.14,399.87 M 250.12,399.93 L 250.14,399.87 L 250.08,399.89" class="flow-arrow"/>
    <path d="M 250.00,425.00 L 250.13,424.86 M 250.11,424.92 L 250.13,424.86 L 250.07,424.88" class="flow-arrow"/>
    <path d="M 250.00,450.00 L 250.12,449.85 M 250.11,449.91 L 250.12,449.85 L 250.06,449.87" class="flow-arrow"/>
    <path d="M 250.00,475.00 L 250.12,474.84 M 250.11,474.90 L 250.12,474.84 L 250.06,474.87" class="flow-arrow"/>
    <path d="M 250.00,500.00 L 250.11,499.83 M 250.10,499.90 L 250.11,499.83 L 250.05,499.86" class="flow-arrow"/>
    <path d="M 250.00,525.00 L 250.10,524.82 M 250.10,524.89 L 250.10,524.82 L 250.05,524.86" class="flow-arrow"/>
    <path d="M 250.00,550.00 L 250.10,549.82 M 250.10,549.89 L 250.10,549.82 L 250.04,549.86" class="flow-arrow"/>
    <path d="M 250.00,575.00 L 250.09,574.81 M 250.09,574.88 L 250.09,574.81 L 250.04,574.85" class="flow-arrow"/>
    <path d="M 275.00,25.00 L 275.10,25.19 M 275.04,25.14 L 275.10,25.19 L 275.09,25.12" class="flow-arrow"/>
    <path d="M 275.00,50.00 L 275.10,50.18 M 275.05,50.14 L 275.10,50.18 L 275.10,50.11" class="flow-arrow"/>
    <path d="M 275.00,75.00 L 275.11,75.17 M 275.05,75.14 L 275.11,75.17 L 275.10,75.10" class="flow-arrow"/>
    <path d="M 275.00,100.00 L 275.12,100.16 M 275.06,100.13 L 275.12,100.16 L 275.11,100.09" class="flow-arrow"/>
    <path d="M 275.00,125.00 L 275.13,125.15 M 275.07,125.12 L 275.13,125.15 L 275.11,125.08" class="flow-arrow"/>
    <path d="M 275.00,150.00 L 275.14,150.13 M 275.08,150.11 L 275.14,150.13 L 275.12,150.07" class="flow-arrow"/>
    <path d="M 275.00,175.00 L 275.15,175.11 M 275.09,175.10 L 275.15,175.11 L 275.12,175.05" class="flow-arrow"/>
    <path d="M 275.00,200.00 L 275.16,200.08 M 275.10,200.08 L 275.16,200.08 L 275.13,200.03" class="flow-arrow"/>
    <path d="M 275.00,225.00 L 275.17,225.05 M 275.11,225.06 L 275.17,225.05 L 275.13,225.01" class="flow-arrow"/>
    <path d="M 275.00,250.00 L 275.18,250.01 M 275.12,250.04 L 275.18,250.01 L 275.13,249.98" class="flow-arrow"/>
    <path d="M 275.00,275.00 L 275.17,274.97 M 275.13,275.01 L 275.17,274.97 L 275.12,274.96" class="flow-arrow"/>
    <path d="M 275.00,300.00 L 275.16,299.94 M 275.12,299.98 L 275.16,299.94 L 275.11,299.93" class="flow-arrow"/>
    <path d="M 275.00,325.00 L 275.15,324.91 M 275.12,324.96 L 275.15,324.91 L 275.09,324.91" class="flow-arrow"/>
    <path d="M 275.00,350.00 L 275.14,349.89 M 275.11,349.94 L 275.14,349.89 L 275.08,349.90" class="flow-arrow"/>
    <path d="M 275.00,375.00 L 275.13,374.87 M 275.11,374.93 L 275.13,374.87 L 275.07,374.89" class="flow-arrow"/>
    <path d="M 275.00,400.00 L 275.12,399.86 M 275.10,399.92 L 275.12,399.86 L 275.06,399.88" class="flow-arrow"/>
    <path d="M 275.00,425.00 L 275.11,424.85 M 275.10,424.91 L 275.11,424.85 L 275.05,424.88" class="flow-arrow"/>
    <path d="M 275.00,450.00 L 275.10,449.84 M 275.10,449.90 L 275.10,449.84 L 275.05,449.87" class="flow-arrow"/>
    <path d="M 275.00,475.00 L 275.10,474.83 M 275.09,474.89 L 275.10,474.83 L 275.04,474.87" class="flow-arrow"/>
    <path d="M 275.00,500.00 L 275.09,499.82 M 275.09,499.89 L 275.09,499.82 L 275.04,499.86" class="flow-arrow"/>
    <path d="M 275.00,525.00 L 275.09,524.82 M 275.09,524.88 L 275.09,524.82 L 275.03,524.86" class="flow-arrow"/>
    <path d="M 275.00,550.00 L 275.08,549.81 M 275.09,549.88 L 275.08,549.81 L 275.03,549.86" class="flow-arrow"/>
    <path d="M 275.00,575.00 L 275.08,574.81 M 275.08,574.88 L 275.08,574.81 L 275.02,574.85" class="flow-arrow"/>
    <path d="M 300.00,25.00 L 300.08,25.19 M 300.03,25.15 L 300.08,25.19 L 300.09,25.12" class="flow-arrow"/>
    <path d="M 300.00,50.00 L 300.09,50.18 M 300.03,50.14 L 300.09,50.18 L 300.09,50.12" class="flow-arrow"/>
    <path d="M 300.00,75.00 L 300.10,75.18 M 300.04,75.14 L 300.10,75.18 L 300.09,75.11" class="flow-arrow"/>
    <path d="M 300.00,100.00 L 300.11,100.17 M 300.05,100.13 L 300.11,100.17 L 300.10,100.10" class="flow-arrow"/>
    <path d="M 300.00,125.00 L 300.12,125.16 M 300.06,125.13 L 300.12,125.16 L 300.10,125.09" class="flow-arrow"/>
    <path d="M 300.00,150.00 L 300.13,150.14 M 300.07,150.12 L 300.13,150.14 L 300.11,150.08" class="flow-arrow"/>
    <path d="M 300.00,175.00 L 300.14,175.12 M 300.08,175.10 L 300.14,175.12 L 300.12,175.06" class="flow-arrow"/>
    <path d="M 300.00,200.00 L 300.16,200.09 M 300.10,200.08 L 300.16,200.09 L 300.12,200.04" class="flow-arrow"/>
    <path d="M 300.00,225.00 L 300.17,225.05 M 300.11,225.06 L 300.17,225.05 L 300.12,225.01" class="flow-arrow"/>
    <path d="M 300.00,250.00 L 300.17,250.00 M 300.12,250.03 L 300.17,250.00 L 300.12,249.97" class="flow-arrow"/>
    <path d="M 300.00,275.00 L 300.16,274.95 M 300.12,274.99 L 300.16,274.95 L 300.11,274.94" class="flow-arrow"/>
    <path d="M 300.00,300.00 L 300.14,299.90 M 300.12,299.95 L 300.14,299.90 L 300.09,299.91" class="flow-arrow"/>
    <path d="M 300.00,325.00 L 300.12,324.88 M 300.10,324.93 L 300.12,324.88 L 300.07,324.90" class="flow-arrow"/>
    <path d="M 300.00,350.00 L 300.10,349.86 M 300.09,349.92 L 300.10,349.86 L 300.05,349.89" class="flow-arrow"/>
    <path d="M 300.00,375.00 L 300.09,374.85 M 300.09,374.91 L 300.09,374.85 L 300.04,374.88" class="flow-arrow"/>
    <path d="M 300.00,400.00 L 300.09,399.84 M 300.08,399.90 L 300.09,399.84 L 300.04,399.88" class="flow-arrow"/>
    <path d="M 300.00,425.00 L 300.08,424.84 M 300.08,424.90 L 300.08,424.84 L 300.03,424.87" class="flow-arrow"/>
    <path d="M 300.00,450.00 L 300.08,449.83 M 300.08,449.89 L 300.08,449.83 L 300.03,449.87" class="flow-arrow"/>
    <path d="M 300.00,475.00 L 300.07,474.82 M 300.08,474.89 L 300.07,474.82 L 300.03,474.86" class="flow-arrow"/>
    <path d="M 300.00,500.00 L 300.07,499.82 M 300.08,499.88 L 300.07,499.82 L 300.02,499.86" class="flow-arrow"/>
    <path d="M 300.00,525.00 L 300.07,524.81 M 300.08,524.88 L 300.07,524.81 L 300.02,524.86" class="flow-arrow"/>
    <path d="M 300.00,550.00 L 300.06,549.81 M 300.07,549.87 L 300.06,549.81 L 300.02,549.85" class="flow-arrow"/>
    <path d="M 300.00,575.00 L 300.06,574.80 M 300.07,574.87 L 300.06,574.80 L 300.01,574.85" class="flow-arrow"/>
    <path d="M 325.00,25.00 L 325.07,25.20 M 325.02,25.15 L 325.07,25.20 L 325.08,25.13" class="flow-arrow"/>
    <path d="M 325.00,50.00 L 325.07,50.19 M 325.02,50.14 L 325.07,50.19 L 325.08,50.12" class="flow-arrow"/>
    <path d="M 325.00,75.00 L 325.08,75.18 M 325.03,75.14 L 325.08,75.18 L 325.08,75.12" class="flow-arrow"/>
    <path d="M 325.00,100.00 L 325.09,100.18 M 325.04,100.14 L 325.09,100.18 L 325.09,100.11" class="flow-arrow"/>
    <path d="M 325.00,125.00 L 325.10,125.16 M 325.04,125.13 L 325.10,125.16 L 325.09,125.10" class="flow-arrow"/>
    <path d="M 325.00,150.00 L 325.11,150.15 M 325.06,150.12 L 325.11,150.15 L 325.10,150.09" class="flow-arrow"/>
    <path d="M 325.00,175.00 L 325.13,175.13 M 325.07,175.11 L 325.13,175.13 L 325.11,175.07" class="flow-arrow"/>
    <path d="M 325.00,200.00 L 325.15,200.09 M 325.09,200.09 L 325.15,200.09 L 325.12,200.04" class="flow-arrow"/>
    <path d="M 325.00,225.00 L 325.17,225.05 M 325.11,225.06 L 325.17,225.05 L 325.12,225.01" class="flow-arrow"/>
    <path d="M 325.00,250.00 L 325.18,249.98 M 325.13,250.01 L 325.18,249.98 L 325.12,249.96" class="flow-arrow"/>
    <path d="M 325.00,275.00 L 325.16,274.89 M 325.13,274.95 L 325.16,274.89 L 325.10,274.90" class="flow-arrow"/>
    <path d="M 325.00,300.00 L 325.11,299.83 M 325.10,299.90 L 325.11,299.83 L 325.05,299.86" class="flow-arrow"/>
    <path d="M 325.00,325.00 L 325.06,324.82 M 325.07,324.88 L 325.06,324.82 L 325.02,324.86" class="flow-arrow"/>
    <path d="M 325.00,350.00 L 325.05,349.83 M 325.06,349.89 L 325.05,349.83 L 325.01,349.87" class="flow-arrow"/>
    <path d="M 325.00,375.00 L 325.05,374.83 M 325.06,374.89 L 325.05,374.83 L 325.01,374.88" class="flow-arrow"/>
    <path d="M 325.00,400.00 L 325.05,399.83 M 325.06,399.89 L 325.05,399.83 L 325.01,399.88" class="flow-arrow"/>
    <path d="M 325.00,425.00 L 325.05,424.83 M 325.06,424.89 L 325.05,424.83 L 325.01,424.87" class="flow-arrow"/>
    <path d="M 325.00,450.00 L 325.05,449.82 M 325.06,449.88 L 325.05,449.82 L 325.01,449.87" class="flow-arrow"/>
    <path d="M 325.00,475.00 L 325.05,474.82 M 325.06,474.88 L 325.05,474.82 L 325.01,474.86" class="flow-arrow"/>
    <path d="M 325.00,500.00 L 325.05,499.81 M 325.06,499.87 L 325.05,499.81 L 325.01,499.86" class="flow-arrow"/>
    <path d="M 325.00,525.00 L 325.05,524.81 M 325.06,524.87 L 325.05,524.81 L 325.00,524.86" class="flow-arrow"/>
    <path d="M 325.00,550.00 L 325.04,549.80 M 325.06,549.87 L 325.04,549.80 L 325.00,549.85" class="flow-arrow"/>
    <path d="M 325.00,575.00 L 325.04,574.80 M 325.06,574.86 L 325.04,574.80 L 325.00,574.85" class="flow-arrow"/>
    <path d="M 350.00,25.00 L 350.05,25.20 M 350.00,25.15 L 350.05,25.20 L 350.06,25.13" class="flow-arrow"/>
    <path d="M 350.00,50.00 L 350.05,50.20 M 350.01,50.14 L 350.05,50.20 L 350.07,50.13" class="flow-arrow"/>
    <path d="M 350.00,75.00 L 350.06,75.19 M 350.01,75.14 L 350.06,75.19 L 350.07,75.12" class="flow-arrow"/>
    <path d="M 350.00,100.00 L 350.07,100.18 M 350.02,100.14 L 350.07,100.18 L 350.08,100.12" class="flow-arrow"/>
    <path d="M 350.00,125.00 L 350.08,125.17 M 350.03,125.13 L 350.08,125.17 L 350.08,125.11" class="flow-arrow"/>
    <path d="M 350.00,150.00 L 350.09,150.16 M 350.04,150.12 L 350.09,150.16 L 350.09,150.10" class="flow-arrow"/>
    <path d="M 350.00,175.00 L 350.11,175.14 M 350.06,175.11 L 350.11,175.14 L 350.10,175.08" class="flow-arrow"/>
    <path d="M 350.00,200.00 L 350.14,200.10 M 350.08,200.09 L 350.14,200.10 L 350.11,200.05" class="flow-arrow"/>
    <path d="M 350.00,225.00 L 350.17,225.05 M 350.11,225.06 L 350.17,225.05 L 350.13,225.01" class="flow-arrow"/>
    <path d="M 350.00,250.00 L 350.21,249.94 M 350.16,249.99 L 350.21,249.94 L 350.14,249.93" class="flow-arrow"/>
    <path d="M 350.00,275.00 L 350.20,274.76 M 350.18,274.86 L 350.20,274.76 L 350.10,274.80" class="flow-arrow"/>
    <path d="M 350.00,300.00 L 350.05,299.62 M 350.09,299.74 L 350.05,299.62 L 349.98,299.72" class="flow-arrow"/>
    <path d="M 350.00,325.00 L 349.92,324.69 M 349.99,324.77 L 349.92,324.69 L 349.90,324.80" class="flow-arrow"/>
    <path d="M 350.00,350.00 L 349.94,349.79 M 349.99,349.84 L 349.94,349.79 L 349.93,349.86" class="flow-arrow"/>
    <path d="M 350.00,375.00 L 349.98,374.82 M 350.01,374.87 L 349.98,374.82 L 349.96,374.88" class="flow-arrow"/>
    <path d="M 350.00,400.00 L 350.00,399.83 M 350.03,399.88 L 350.00,399.83 L 349.97,399.88" class="flow-arrow"/>
    <path d="M 350.00,425.00 L 350.01,424.82 M 350.04,424.88 L 350.01,424.82 L 349.98,424.87" class="flow-arrow"/>
    <path d="M 350.00,450.00 L 350.02,449.82 M 350.04,449.88 L 350.02,449.82 L 349.99,449.87" class="flow-arrow"/>
    <path d="M 350.00,475.00 L 350.02,474.81 M 350.04,474.87 L 350.02,474.81 L 349.99,474.86" class="flow-arrow"/>
    <path d="M 350.00,500.00 L 350.03,499.81 M 350.05,499.87 L 350.03,499.81 L 349.99,499.86" class="flow-arrow"/>
    <path d="M 350.00,525.00 L 350.03,524.80 M 350.05,524.87 L 350.03,524.80 L 349.99,524.86" class="flow-arrow"/>
    <path d="M 350.00,550.00 L 350.03,549.80 M 350.05,549.86 L 350.03,549.80 L 349.99,549.86" class="flow-arrow"/>
    <path d="M 350.00,575.00 L 350.02,574.80 M 350.05,574.86 L 350.02,574.80 L 349.99,574.85" class="flow-arrow"/>
    <path d="M 375.00,25.00 L 375.03,25.20 M 374.99,25.15 L 375.03,25.20 L 375.05,25.14" class="flow-arrow"/>
    <path d="M 375.00,50.00 L 375.04,50.20 M 374.99,50.14 L 375.04,50.20 L 375.05,50.13" class="flow-arrow"/>
    <path d="M 375.00,75.00 L 375.04,75.19 M 375.00,75.14 L 375.04,75.19 L 375.06,75.13" class="flow-arrow"/>
    <path d="M 375.00,100.00 L 375.05,100.19 M 375.00,100.14 L 375.05,100.19 L 375.06,100.12" class="flow-arrow"/>
    <path d="M 375.00,125.00 L 375.06,125.18 M 375.01,125.13 L 375.06,125.18 L 375.07,125.12" class="flow-arrow"/>
    <path d="M 375.00,150.00 L 375.07,150.17 M 375.02,150.13 L 375.07,150.17 L 375.07,150.11" class="flow-arrow"/>
    <path d="M 375.00,175.00 L 375.09,175.15 M 375.04,175.12 L 375.09,175.15 L 375.09,175.09" class="flow-arrow"/>
    <path d="M 375.00,200.00 L 375.12,200.12 M 375.07,200.10 L 375.12,200.12 L 375.10,200.07" class="flow-arrow"/>
    <path d="M 375.00,225.00 L 375.18,225.06 M 375.12,225.07 L 375.18,225.06 L 375.14,225.02" class="flow-arrow"/>
    <path d="M 375.00,250.00 L 375.31,249.92 M 375.23,249.99 L 375.31,249.92 L 375.20,249.90" class="flow-arrow"/>
    <path d="M 375.00,275.00 L 375.42,274.58 M 375.36,274.77 L 375.42,274.58 L 375.23,274.64" class="flow-arrow"/>
    <path d="M 375.00,300.00 L 375.00,299.40 M 375.09,299.58 L 375.00,299.40 L 374.91,299.58" class="flow-arrow"/>
    <path d="M 375.00,325.00 L 374.58,324.58 M 374.77,324.64 L 374.58,324.58 L 374.64,324.77" class="flow-arrow"/>
    <path d="M 375.00,350.00 L 374.76,349.80 M 374.86,349.82 L 374.76,349.80 L 374.80,349.90" class="flow-arrow"/>
    <path d="M 375.00,375.00 L 374.89,374.84 M 374.95,374.87 L 374.89,374.84 L 374.90,374.90" class="flow-arrow"/>
    <path d="M 375.00,400.00 L 374.95,399.84 M 374.99,399.88 L 374.95,399.84 L 374.94,399.89" class="flow-arrow"/>
    <path d="M 375.00,425.00 L 374.97,424.83 M 375.01,424.87 L 374.97,424.83 L 374.96,424.88" class="flow-arrow"/>
    <path d="M 375.00,450.00 L 374.99,449.82 M 375.02,449.87 L 374.99,449.82 L 374.96,449.87" class="flow-arrow"/>
    <path d="M 375.00,475.00 L 375.00,474.81 M 375.03,474.87 L 375.00,474.81 L 374.97,474.87" class="flow-arrow"/>
    <path d="M 375.00,500.00 L 375.00,499.81 M 375.03,499.86 L 375.00,499.81 L 374.97,499.86" class="flow-arrow"/>
    <path d="M 375.00,525.00 L 375.00,524.80 M 375.03,524.86 L 375.00,524.80 L 374.97,524.86" class="flow-arrow"/>
    <path d="M 375.00,550.00 L 375.00,549.80 M 375.03,549.86 L 375.00,549.80 L 374.97,549.86" class="flow-arrow"/>
    <path d="M 375.00,575.00 L 375.01,574.79 M 375.04,574.86 L 375.01,574.79 L 374.97,574.86" class="flow-arrow"/>
    <path d="M 400.00,25.00 L 400.01,25.21 M 399.98,25.15 L 400.01,25.21 L 400.04,25.14" class="flow-arrow"/>
    <path d="M 400.00,50.00 L 400.02,50.20 M 399.98,50.14 L 400.02,50.20 L 400.04,50.14" class="flow-arrow"/>
    <path d="M 400.00,75.00 L 400.02,75.20 M 399.98,75.14 L 400.02,75.20 L 400.04,75.14" class="flow-arrow"/>
    <path d="M 400.00,100.00 L 400.02,100.19 M 399.99,100.14 L 400.02,100.19 L 400.05,100.13" class="flow-arrow"/>
    <path d="M 400.00,125.00 L 400.03,125.19 M 399.99,125.13 L 400.03,125.19 L 400.05,125.12" class="flow-arrow"/>
    <path d="M 400.00,150.00 L 400.04,150.18 M 400.00,150.13 L 400.04,150.18 L 400.06,150.12" class="flow-arrow"/>
    <path d="M 400.00,175.00 L 400.06,175.16 M 400.02,175.12 L 400.06,175.16 L 400.07,175.11" class="flow-arrow"/>
    <path d="M 400.00,200.00 L 400.10,200.14 M 400.05,200.12 L 400.10,200.14 L 400.09,200.09" class="flow-arrow"/>
    <path d="M 400.00,225.00 L 400.17,225.11 M 400.10,225.10 L 400.17,225.11 L 400.14,225.05" class="flow-arrow"/>
    <path d="M 400.00,250.00 L 400.38,250.05 M 400.26,250.09 L 400.38,250.05 L 400.28,249.98" class="flow-arrow"/>
    <path d="M 400.00,275.00 L 400.60,275.00 M 400.42,275.09 L 400.60,275.00 L 400.42,274.91" class="flow-arrow"/>
    <path d="M 400.00,325.00 L 399.40,325.00 M 399.58,324.91 L 399.40,325.00 L 399.58,325.09" class="flow-arrow"/>
    <path d="M 400.00,350.00 L 399.62,349.95 M 399.74,349.91 L 399.62,349.95 L 399.72,350.02" class="flow-arrow"/>
    <path d="M 400.00,375.00 L 399.83,374.89 M 399.90,374.90 L 399.83,374.89 L 399.86,374.95" class="flow-arrow"/>
    <path d="M 400.00,400.00 L 399.90,399.86 M 399.95,399.88 L 399.90,399.86 L 399.91,399.91" class="flow-arrow"/>
    <path d="M 400.00,425.00 L 399.94,424.84 M 399.98,424.88 L 399.94,424.84 L 399.93,424.89" class="flow-arrow"/>
    <path d="M 400.00,450.00 L 399.96,449.82 M 400.00,449.87 L 399.96,449.82 L 399.94,449.88" class="flow-arrow"/>
    <path d="M 400.00,475.00 L 399.97,474.81 M 400.01,474.87 L 399.97,474.81 L 399.95,474.88" class="flow-arrow"/>
    <path d="M 400.00,500.00 L 399.98,499.81 M 400.01,499.86 L 399.98,499.81 L 399.95,499.87" class="flow-arrow"/>
    <path d="M 400.00,525.00 L 399.98,524.80 M 400.02,524.86 L 399.98,524.80 L 399.96,524.86" class="flow-arrow"/>
    <path d="M 400.00,550.00 L 399.98,549.80 M 400.02,549.86 L 399.98,549.80 L 399.96,549.86" class="flow-arrow"/>
    <path d="M 400.00,575.00 L 399.99,574.79 M 400.02,574.85 L 399.99,574.79 L 399.96,574.86" class="flow-arrow"/>
    <path d="M 425.00,25.00 L 424.99,25.21 M 424.96,25.14 L 424.99,25.21 L 425.03,25.14" class="flow-arrow"/>
    <path d="M 425.00,50.00 L 425.00,50.20 M 424.97,50.14 L 425.00,50.20 L 425.03,50.14" class="flow-arrow"/>
    <path d="M 425.00,75.00 L 425.00,75.20 M 424.97,75.14 L 425.00,75.20 L 425.03,75.14" class="flow-arrow"/>
    <path d="M 425.00,100.00 L 425.00,100.19 M 424.97,100.14 L 425.00,100.19 L 425.03,100.14" class="flow-arrow"/>
    <path d="M 425.00,125.00 L 425.00,125.19 M 424.97,125.13 L 425.00,125.19 L 425.03,125.13" class="flow-arrow"/>
    <path d="M 425.00,150.00 L 425.01,150.18 M 424.98,150.13 L 425.01,150.18 L 425.04,150.13" class="flow-arrow"/>
    <path d="M 425.00,175.00 L 425.03,175.17 M 424.99,175.13 L 425.03,175.17 L 425.04,175.12" class="flow-arrow"/>
    <path d="M 425.00,200.00 L 425.05,200.16 M 425.01,200.12 L 425.05,200.16 L 425.06,200.11" class="flow-arrow"/>
    <path d="M 425.00,225.00 L 425.11,225.16 M 425.05,225.13 L 425.11,225.16 L 425.10,225.10" class="flow-arrow"/>
    <path d="M 425.00,250.00 L 425.24,250.20 M 425.14,250.18 L 425.24,250.20 L 425.20,250.10" class="flow-arrow"/>
    <path d="M 425.00,275.00 L 425.42,275.42 M 425.23,275.36 L 425.42,275.42 L 425.36,275.23" class="flow-arrow"/>
    <path d="M 425.00,300.00 L 425.00,300.60 M 424.91,300.42 L 425.00,300.60 L 425.09,300.42" class="flow-arrow"/>
    <path d="M 425.00,325.00 L 424.58,325.42 M 424.64,325.23 L 424.58,325.42 L 424.77,325.36" class="flow-arrow"/>
    <path d="M 425.00,350.00 L 424.69,350.08 M 424.77,350.01 L 424.69,350.08 L 424.80,350.10" class="flow-arrow"/>
    <path d="M 425.00,375.00 L 424.82,374.94 M 424.88,374.93 L 424.82,374.94 L 424.86,374.98" class="flow-arrow"/>
    <path d="M 425.00,400.00 L 424.88,399.88 M 424.93,399.90 L 424.88,399.88 L 424.90,399.93" class="flow-arrow"/>
    <path d="M 425.00,425.00 L 424.91,424.85 M 424.96,424.88 L 424.91,424.85 L 424.91,424.91" class="flow-arrow"/>
    <path d="M 425.00,450.00 L 424.93,449.83 M 424.98,449.87 L 424.93,449.83 L 424.93,449.89" class="flow-arrow"/>
    <path d="M 425.00,475.00 L 424.94,474.82 M 424.99,474.87 L 424.94,474.82 L 424.93,474.88" class="flow-arrow"/>
    <path d="M 425.00,500.00 L 424.95,499.81 M 425.00,499.86 L 424.95,499.81 L 424.94,499.88" class="flow-arrow"/>
    <path d="M 425.00,525.00 L 424.96,524.81 M 425.00,524.86 L 424.96,524.81 L 424.94,524.87" class="flow-arrow"/>
    <path d="M 425.00,550.00 L 424.96,549.80 M 425.01,549.86 L 424.96,549.80 L 424.95,549.87" class="flow-arrow"/>
    <path d="M 425.00,575.00 L 424.97,574.80 M 425.01,574.85 L 424.97,574.80 L 424.95,574.86" class="flow-arrow"/>
    <path d="M 450.00,25.00 L 449.98,25.20 M 449.95,25.14 L 449.98,25.20 L 450.01,25.15" class="flow-arrow"/>
    <path d="M 450.00,50.00 L 449.97,50.20 M 449.95,50.14 L 449.97,50.20 L 450.01,50.14" class="flow-arrow"/>
    <path d="M 450.00,75.00 L 449.97,75.20 M 449.95,75.13 L 449.97,75.20 L 450.01,75.14" class="flow-arrow"/>
    <path d="M 450.00,100.00 L 449.97,100.19 M 449.95,100.13 L 449.97,100.19 L 450.01,100.14" class="flow-arrow"/>
    <path d="M 450.00,125.00 L 449.98,125.19 M 449.96,125.13 L 449.98,125.19 L 450.01,125.14" class="flow-arrow"/>
    <path d="M 450.00,150.00 L 449.98,150.18 M 449.96,150.12 L 449.98,150.18 L 450.01,150.13" class="flow-arrow"/>
    <path d="M 450.00,175.00 L 449.99,175.18 M 449.96,175.12 L 449.99,175.18 L 450.02,175.13" class="flow-arrow"/>
    <path d="M 450.00,200.00 L 450.00,200.17 M 449.97,200.12 L 450.00,200.17 L 450.03,200.12" class="flow-arrow"/>
    <path d="M 450.00,225.00 L 450.02,225.18 M 449.99,225.13 L 450.02,225.18 L 450.04,225.12" class="flow-arrow"/>
    <path d="M 450.00,250.00 L 450.06,250.21 M 450.01,250.16 L 450.06,250.21 L 450.07,250.14" class="flow-arrow"/>
    <path d="M 450.00,275.00 L 450.08,275.31 M 450.01,275.23 L 450.08,275.31 L 450.10,275.20" class="flow-arrow"/>
    <path d="M 450.00,300.00 L 449.95,300.38 M 449.91,300.26 L 449.95,300.38 L 450.02,300.28" class="flow-arrow"/>
    <path d="M 450.00,325.00 L 449.80,325.24 M 449.82,325.14 L 449.80,325.24 L 449.90,325.20" class="flow-arrow"/>
    <path d="M 450.00,350.00 L 449.79,350.06 M 449.84,350.01 L 449.79,350.06 L 449.86,350.07" class="flow-arrow"/>
    <path d="M 450.00,375.00 L 449.83,374.95 M 449.89,374.94 L 449.83,374.95 L 449.87,374.99" class="flow-arrow"/>
    <path d="M 450.00,400.00 L 449.86,399.90 M 449.92,399.91 L 449.86,399.90 L 449.89,399.95" class="flow-arrow"/>
    <path d="M 450.00,425.00 L 449.89,424.86 M 449.94,424.89 L 449.89,424.86 L 449.90,424.92" class="flow-arrow"/>
    <path d="M 450.00,450.00 L 449.91,449.84 M 449.96,449.88 L 449.91,449.84 L 449.91,449.90" class="flow-arrow"/>
    <path d="M 450.00,475.00 L 449.92,474.83 M 449.97,474.87 L 449.92,474.83 L 449.92,474.89" class="flow-arrow"/>
    <path d="M 450.00,500.00 L 449.93,499.82 M 449.98,499.86 L 449.93,499.82 L 449.92,499.88" class="flow-arrow"/>
    <path d="M 450.00,525.00 L 449.94,524.81 M 449.99,524.86 L 449.94,524.81 L 449.93,524.88" class="flow-arrow"/>
    <path d="M 450.00,550.00 L 449.95,549.80 M 449.99,549.86 L 449.95,549.80 L 449.93,549.87" class="flow-arrow"/>
    <path d="M 450.00,575.00 L 449.95,574.80 M 450.00,574.85 L 449.95,574.80 L 449.94,574.87" class="flow-arrow"/>
    <path d="M 475.00,25.00 L 474.96,25.20 M 474.94,25.14 L 474.96,25.20 L 475.00,25.15" class="flow-arrow"/>
    <path d="M 475.00,50.00 L 474.96,50.20 M 474.94,50.13 L 474.96,50.20 L 475.00,50.15" class="flow-arrow"/>
    <path d="M 475.00,75.00 L 474.95,75.19 M 474.94,75.13 L 474.95,75.19 L 475.00,75.14" class="flow-arrow"/>
    <path d="M 475.00,100.00 L 474.95,100.19 M 474.94,100.13 L 474.95,100.19 L 474.99,100.14" class="flow-arrow"/>
    <path d="M 475.00,125.00 L 474.95,125.18 M 474.94,125.12 L 474.95,125.18 L 474.99,125.14" class="flow-arrow"/>
    <path d="M 475.00,150.00 L 474.95,150.18 M 474.94,150.12 L 474.95,150.18 L 474.99,150.13" class="flow-arrow"/>
    <path d="M 475.00,175.00 L 474.95,175.17 M 474.94,175.11 L 474.95,175.17 L 474.99,175.13" class="flow-arrow"/>
    <path d="M 475.00,200.00 L 474.95,200.17 M 474.94,200.11 L 474.95,200.17 L 474.99,200.12" class="flow-arrow"/>
    <path d="M 475.00,225.00 L 474.95,225.17 M 474.94,225.11 L 474.95,225.17 L 474.99,225.12" class="flow-arrow"/>
    <path d="M 475.00,250.00 L 474.95,250.17 M 474.94,250.11 L 474.95,250.17 L 474.99,250.13" class="flow-arrow"/>
    <path d="M 475.00,275.00 L 474.94,275.18 M 474.93,275.12 L 474.94,275.18 L 474.98,275.14" class="flow-arrow"/>
    <path d="M 475.00,300.00 L 474.89,300.17 M 474.90,300.10 L 474.89,300.17 L 474.95,300.14" class="flow-arrow"/>
    <path d="M 475.00,325.00 L 474.84,325.11 M 474.87,325.05 L 474.84,325.11 L 474.90,325.10" class="flow-arrow"/>
    <path d="M 475.00,350.00 L 474.82,350.02 M 474.87,349.99 L 474.82,350.02 L 474.88,350.04" class="flow-arrow"/>
    <path d="M 475.00,375.00 L 474.83,374.95 M 474.89,374.94 L 474.83,374.95 L 474.88,374.99" class="flow-arrow"/>
    <path d="M 475.00,400.00 L 474.85,399.91 M 474.91,399.91 L 474.85,399.91 L 474.88,399.96" class="flow-arrow"/>
    <path d="M 475.00,425.00 L 474.87,424.87 M 474.93,424.89 L 474.87,424.87 L 474.89,424.93" class="flow-arrow"/>
    <path d="M 475.00,450.00 L 474.89,449.85 M 474.94,449.88 L 474.89,449.85 L 474.90,449.91" class="flow-arrow"/>
    <path d="M 475.00,475.00 L 474.90,474.84 M 474.96,474.87 L 474.90,474.84 L 474.91,474.90" class="flow-arrow"/>
    <path d="M 475.00,500.00 L 474.91,499.82 M 474.96,499.86 L 474.91,499.82 L 474.91,499.89" class="flow-arrow"/>
    <path d="M 475.00,525.00 L 474.92,524.82 M 474.97,524.86 L 474.92,524.82 L 474.92,524.88" class="flow-arrow"/>
    <path d="M 475.00,550.00 L 474.93,549.81 M 474.98,549.86 L 474.93,549.81 L 474.92,549.88" class="flow-arrow"/>
    <path d="M 475.00,575.00 L 474.93,574.80 M 474.98,574.85 L 474.93,574.80 L 474.92,574.87" class="flow-arrow"/>
    <path d="M 500.00,25.00 L 499.94,25.20 M 499.93,25.13 L 499.94,25.20 L 499.99,25.15" class="flow-arrow"/>
    <path d="M 500.00,50.00 L 499.94,50.19 M 499.93,50.13 L 499.94,50.19 L 499.98,50.15" class="flow-arrow"/>
    <path d="M 500.00,75.00 L 499.93,75.19 M 499.92,75.12 L 499.93,75.19 L 499.98,75.14" class="flow-arrow"/>
    <path d="M 500.00,100.00 L 499.93,100.18 M 499.92,100.12 L 499.93,100.18 L 499.98,100.14" class="flow-arrow"/>
    <path d="M 500.00,125.00 L 499.93,125.18 M 499.92,125.11 L 499.93,125.18 L 499.97,125.14" class="flow-arrow"/>
    <path d="M 500.00,150.00 L 499.92,150.17 M 499.92,150.11 L 499.92,150.17 L 499.97,150.13" class="flow-arrow"/>
    <path d="M 500.00,175.00 L 499.92,175.16 M 499.92,175.10 L 499.92,175.16 L 499.97,175.13" class="flow-arrow"/>
    <path d="M 500.00,200.00 L 499.91,200.16 M 499.92,200.10 L 499.91,200.16 L 499.96,200.12" class="flow-arrow"/>
    <path d="M 500.00,225.00 L 499.91,225.15 M 499.91,225.09 L 499.91,225.15 L 499.96,225.12" class="flow-arrow"/>
    <path d="M 500.00,250.00 L 499.90,250.14 M 499.91,250.08 L 499.90,250.14 L 499.95,250.11" class="flow-arrow"/>
    <path d="M 500.00,275.00 L 499.88,275.12 M 499.90,275.07 L 499.88,275.12 L 499.93,275.10" class="flow-arrow"/>
    <path d="M 500.00,300.00 L 499.86,300.10 M 499.88,300.05 L 499.86,300.10 L 499.91,300.09" class="flow-arrow"/>
    <path d="M 500.00,325.00 L 499.84,325.05 M 499.88,325.01 L 499.84,325.05 L 499.89,325.06" class="flow-arrow"/>
    <path d="M 500.00,350.00 L 499.83,350.00 M 499.88,349.97 L 499.83,350.00 L 499.88,350.03" class="flow-arrow"/>
    <path d="M 500.00,375.00 L 499.83,374.95 M 499.89,374.94 L 499.83,374.95 L 499.88,374.99" class="flow-arrow"/>
    <path d="M 500.00,400.00 L 499.84,399.91 M 499.90,399.92 L 499.84,399.91 L 499.88,399.96" class="flow-arrow"/>
    <path d="M 500.00,425.00 L 499.86,424.88 M 499.92,424.90 L 499.86,424.88 L 499.88,424.94" class="flow-arrow"/>
    <path d="M 500.00,450.00 L 499.87,449.86 M 499.93,449.88 L 499.87,449.86 L 499.89,449.92" class="flow-arrow"/>
    <path d="M 500.00,475.00 L 499.88,474.84 M 499.94,474.87 L 499.88,474.84 L 499.90,474.91" class="flow-arrow"/>
    <path d="M 500.00,500.00 L 499.89,499.83 M 499.95,499.87 L 499.89,499.83 L 499.90,499.90" class="flow-arrow"/>
    <path d="M 500.00,525.00 L 499.90,524.82 M 499.96,524.86 L 499.90,524.82 L 499.91,524.89" class="flow-arrow"/>
    <path d="M 500.00,550.00 L 499.91,549.82 M 499.97,549.86 L 499.91,549.82 L 499.91,549.88" class="flow-arrow"/>
    <path d="M 500.00,575.00 L 499.92,574.81 M 499.97,574.85 L 499.92,574.81 L 499.91,574.88" class="flow-arrow"/>
    <path d="M 525.00,25.00 L 524.92,25.19 M 524.92,25.12 L 524.92,25.19 L 524.98,25.15" class="flow-arrow"/>
    <path d="M 525.00,50.00 L 524.92,50.19 M 524.91,50.12 L 524.92,50.19 L 524.97,50.14" class="flow-arrow"/>
    <path d="M 525.00,75.00 L 524.91,75.18 M 524.91,75.12 L 524.91,75.18 L 524.97,75.14" class="flow-arrow"/>
    <path d="M 525.00,100.00 L 524.91,100.18 M 524.91,100.11 L 524.91,100.18 L 524.96,100.14" class="flow-arrow"/>
    <path d="M 525.00,125.00 L 524.90,125.17 M 524.91,125.11 L 524.90,125.17 L 524.96,125.13" class="flow-arrow"/>
    <path d="M 525.00,150.00 L 524.90,150.16 M 524.90,150.10 L 524.90,150.16 L 524.95,150.13" class="flow-arrow"/>
    <path d="M 525.00,175.00 L 524.89,175.15 M 524.90,175.09 L 524.89,175.15 L 524.95,175.12" class="flow-arrow"/>
    <path d="M 525.00,200.00 L 524.88,200.14 M 524.90,200.08 L 524.88,200.14 L 524.94,200.12" class="flow-arrow"/>
    <path d="M 525.00,225.00 L 524.87,225.13 M 524.89,225.07 L 524.87,225.13 L 524.93,225.11" class="flow-arrow"/>
    <path d="M 525.00,250.00 L 524.86,250.11 M 524.89,250.06 L 524.86,250.11 L 524.92,250.10" class="flow-arrow"/>
    <path d="M 525.00,275.00 L 524.85,275.09 M 524.88,275.04 L 524.85,275.09 L 524.91,275.09" class="flow-arrow"/>
    <path d="M 525.00,300.00 L 524.84,300.06 M 524.88,300.02 L 524.84,300.06 L 524.89,300.07" class="flow-arrow"/>
    <path d="M 525.00,325.00 L 524.83,325.03 M 524.87,324.99 L 524.83,325.03 L 524.88,325.04" class="flow-arrow"/>
    <path d="M 525.00,350.00 L 524.82,349.99 M 524.88,349.96 L 524.82,349.99 L 524.87,350.02" class="flow-arrow"/>
    <path d="M 525.00,375.00 L 524.83,374.95 M 524.89,374.94 L 524.83,374.95 L 524.87,374.99" class="flow-arrow"/>
    <path d="M 525.00,400.00 L 524.84,399.92 M 524.90,399.92 L 524.84,399.92 L 524.87,399.97" class="flow-arrow"/>
    <path d="M 525.00,425.00 L 524.85,424.89 M 524.91,424.90 L 524.85,424.89 L 524.88,424.95" class="flow-arrow"/>
    <path d="M 525.00,450.00 L 524.86,449.87 M 524.92,449.89 L 524.86,449.87 L 524.88,449.93" class="flow-arrow"/>
    <path d="M 525.00,475.00 L 524.87,474.85 M 524.93,474.88 L 524.87,474.85 L 524.89,474.92" class="flow-arrow"/>
    <path d="M 525.00,500.00 L 524.88,499.84 M 524.94,499.87 L 524.88,499.84 L 524.89,499.91" class="flow-arrow"/>
    <path d="M 525.00,525.00 L 524.89,524.83 M 524.95,524.86 L 524.89,524.83 L 524.90,524.90" class="flow-arrow"/>
    <path d="M 525.00,550.00 L 524.90,549.82 M 524.95,549.86 L 524.90,549.82 L 524.90,549.89" class="flow-arrow"/>
    <path d="M 525.00,575.00 L 524.90,574.81 M 524.96,574.86 L 524.90,574.81 L 524.91,574.88" class="flow-arrow"/>
    <path d="M 550.00,25.00 L 549.91,25.19 M 549.91,25.12 L 549.91,25.19 L 549.96,25.15" class="flow-arrow"/>
    <path d="M 550.00,50.00 L 549.90,50.18 M 549.90,50.11 L 549.90,50.18 L 549.96,50.14" class="flow-arrow"/>
    <path d="M 550.00,75.00 L 549.90,75.18 M 549.90,75.11 L 549.90,75.18 L 549.95,75.14" class="flow-arrow"/>
    <path d="M 550.00,100.00 L 549.89,100.17 M 549.90,100.10 L 549.89,100.17 L 549.95,100.14" class="flow-arrow"/>
    <path d="M 550.00,125.00 L 549.88,125.16 M 549.89,125.10 L 549.88,125.16 L 549.94,125.13" class="flow-arrow"/>
    <path d="M 550.00,150.00 L 549.88,150.15 M 549.89,150.09 L 549.88,150.15 L 549.94,150.13" class="flow-arrow"/>
    <path d="M 550.00,175.00 L 549.87,175.14 M 549.89,175.08 L 549.87,175.14 L 549.93,175.12" class="flow-arrow"/>
    <path d="M 550.00,200.00 L 549.86,200.13 M 549.88,200.07 L 549.86,200.13 L 549.92,200.11" class="flow-arrow"/>
    <path d="M 550.00,225.00 L 549.85,225.11 M 549.88,225.06 L 549.85,225.11 L 549.91,225.10" class="flow-arrow"/>
    <path d="M 550.00,250.00 L 549.84,250.09 M 549.88,250.04 L 549.84,250.09 L 549.90,250.09" class="flow-arrow"/>
    <path d="M 550.00,275.00 L 549.83,275.07 M 549.87,275.02 L 549.83,275.07 L 549.89,275.07" class="flow-arrow"/>
    <path d="M 550.00,300.00 L 549.82,300.04 M 549.87,300.00 L 549.82,300.04 L 549.88,300.06" class="flow-arrow"/>
    <path d="M 550.00,325.00 L 549.82,325.01 M 549.87,324.98 L 549.82,325.01 L 549.87,325.04" class="flow-arrow"/>
    <path d="M 550.00,350.00 L 549.82,349.98 M 549.88,349.96 L 549.82,349.98 L 549.87,350.01" class="flow-arrow"/>
    <path d="M 550.00,375.00 L 549.82,374.95 M 549.88,374.94 L 549.82,374.95 L 549.87,374.99" class="flow-arrow"/>
    <path d="M 550.00,400.00 L 549.83,399.92 M 549.89,399.92 L 549.83,399.92 L 549.87,399.97" class="flow-arrow"/>
    <path d="M 550.00,425.00 L 549.84,424.90 M 549.90,424.90 L 549.84,424.90 L 549.87,424.95" class="flow-arrow"/>
    <path d="M 550.00,450.00 L 549.85,449.88 M 549.91,449.89 L 549.85,449.88 L 549.87,449.94" class="flow-arrow"/>
    <path d="M 550.00,475.00 L 549.86,474.86 M 549.92,474.88 L 549.86,474.86 L 549.88,474.92" class="flow-arrow"/>
    <path d="M 550.00,500.00 L 549.87,499.85 M 549.93,499.87 L 549.87,499.85 L 549.88,499.91" class="flow-arrow"/>
    <path d="M 550.00,525.00 L 549.88,524.84 M 549.94,524.87 L 549.88,524.84 L 549.89,524.90" class="flow-arrow"/>
    <path d="M 550.00,550.00 L 549.88,549.83 M 549.94,549.86 L 549.88,549.83 L 549.89,549.90" class="flow-arrow"/>
    <path d="M 550.00,575.00 L 549.89,574.82 M 549.95,574.86 L 549.89,574.82 L 549.90,574.89" class="flow-arrow"/>
    <path d="M 575.00,25.00 L 574.89,25.18 M 574.90,25.11 L 574.89,25.18 L 574.95,25.14" class="flow-arrow"/>
    <path d="M 575.00,50.00 L 574.89,50.18 M 574.90,50.11 L 574.89,50.18 L 574.95,50.14" class="flow-arrow"/>
    <path d="M 575.00,75.00 L 574.88,75.17 M 574.89,75.10 L 574.88,75.17 L 574.94,75.14" class="flow-arrow"/>
    <path d="M 575.00,100.00 L 574.88,100.16 M 574.89,100.10 L 574.88,100.16 L 574.94,100.13" class="flow-arrow"/>
    <path d="M 575.00,125.00 L 574.87,125.15 M 574.89,125.09 L 574.87,125.15 L 574.93,125.13" class="flow-arrow"/>
    <path d="M 575.00,150.00 L 574.86,150.14 M 574.88,150.08 L 574.86,150.14 L 574.92,150.12" class="flow-arrow"/>
    <path d="M 575.00,175.00 L 574.85,175.13 M 574.88,175.07 L 574.85,175.13 L 574.92,175.11" class="flow-arrow"/>
    <path d="M 575.00,200.00 L 574.84,200.12 M 574.87,200.06 L 574.84,200.12 L 574.91,200.10" class="flow-arrow"/>
    <path d="M 575.00,225.00 L 574.84,225.10 M 574.87,225.04 L 574.84,225.10 L 574.90,225.09" class="flow-arrow"/>
    <path d="M 575.00,250.00 L 574.83,250.08 M 574.87,250.03 L 574.83,250.08 L 574.89,250.08" class="flow-arrow"/>
    <path d="M 575.00,275.00 L 574.82,275.06 M 574.87,275.01 L 574.82,275.06 L 574.88,275.07" class="flow-arrow"/>
    <path d="M 575.00,300.00 L 574.81,300.03 M 574.87,299.99 L 574.81,300.03 L 574.88,300.05" class="flow-arrow"/>
    <path d="M 575.00,325.00 L 574.81,325.00 M 574.87,324.97 L 574.81,325.00 L 574.87,325.03" class="flow-arrow"/>
    <path d="M 575.00,350.00 L 574.81,349.98 M 574.87,349.96 L 574.81,349.98 L 574.86,350.01" class="flow-arrow"/>
    <path d="M 575.00,375.00 L 574.82,374.95 M 574.88,374.94 L 574.82,374.95 L 574.86,374.99" class="flow-arrow"/>
    <path d="M 575.00,400.00 L 574.82,399.93 M 574.89,399.92 L 574.82,399.93 L 574.86,399.97" class="flow-arrow"/>
    <path d="M 575.00,425.00 L 574.83,424.90 M 574.89,424.91 L 574.83,424.90 L 574.87,424.96" class="flow-arrow"/>
    <path d="M 575.00,450.00 L 574.84,449.88 M 574.90,449.89 L 574.84,449.88 L 574.87,449.94" class="flow-arrow"/>
    <path d="M 575.00,475.00 L 574.85,474.87 M 574.91,474.89 L 574.85,474.87 L 574.87,474.93" class="flow-arrow"/>
    <path d="M 575.00,500.00 L 574.86,499.86 M 574.92,499.88 L 574.86,499.86 L 574.88,499.92" class="flow-arrow"/>
    <path d="M 575.00,525.00 L 574.86,524.84 M 574.93,524.87 L 574.86,524.84 L 574.88,524.91" class="flow-arrow"/>
    <path d="M 575.00,550.00 L 574.87,549.84 M 574.94,549.87 L 574.87,549.84 L 574.89,549.90" class="flow-arrow"/>
    <path d="M 575.00,575.00 L 574.88,574.83 M 574.94,574.86 L 574.88,574.83 L 574.89,574.90" class="flow-arrow"/>
    <path d="M 600.00,25.00 L 599.88,25.18 M 599.89,25.11 L 599.88,25.18 L 599.94,25.14" class="flow-arrow"/>
    <path d="M 600.00,50.00 L 599.88,50.17 M 599.89,50.10 L 599.88,50.17 L 599.94,50.14" class="flow-arrow"/>
    <path d="M 600.00,75.00 L 599.87,75.16 M 599.88,75.09 L 599.87,75.16 L 599.93,75.13" class="flow-arrow"/>
    <path d="M 600.00,100.00 L 599.86,100.15 M 599.88,100.09 L 599.86,100.15 L 599.93,100.13" class="flow-arrow"/>
    <path d="M 600.00,125.00 L 599.86,125.14 M 599.88,125.08 L 599.86,125.14 L 599.92,125.12" class="flow-arrow"/>
    <path d="M 600.00,150.00 L 599.85,150.13 M 599.87,150.07 L 599.85,150.13 L 599.91,150.12" class="flow-arrow"/>
    <path d="M 600.00,175.00 L 599.84,175.12 M 599.87,175.06 L 599.84,175.12 L 599.91,175.11" class="flow-arrow"/>
    <path d="M 600.00,200.00 L 599.83,200.11 M 599.87,200.05 L 599.83,200.11 L 599.90,200.10" class="flow-arrow"/>
    <path d="M 600.00,225.00 L 599.82,225.09 M 599.86,225.04 L 599.82,225.09 L 599.89,225.09" class="flow-arrow"/>
    <path d="M 600.00,250.00 L 599.82,250.07 M 599.86,250.02 L 599.82,250.07 L 599.88,250.08" class="flow-arrow"/>
    <path d="M 600.00,275.00 L 599.81,275.05 M 599.86,275.00 L 599.81,275.05 L 599.88,275.06" class="flow-arrow"/>
    <path d="M 600.00,300.00 L 599.81,300.02 M 599.86,299.99 L 599.81,300.02 L 599.87,300.05" class="flow-arrow"/>
    <path d="M 600.00,325.00 L 599.81,325.00 M 599.86,324.97 L 599.81,325.00 L 599.86,325.03" class="flow-arrow"/>
    <path d="M 600.00,350.00 L 599.81,349.97 M 599.87,349.95 L 599.81,349.97 L 599.86,350.01" class="flow-arrow"/>
    <path d="M 600.00,375.00 L 599.81,374.95 M 599.87,374.94 L 599.81,374.95 L 599.86,374.99" class="flow-arrow"/>
    <path d="M 600.00,400.00 L 599.82,399.93 M 599.88,399.92 L 599.82,399.93 L 599.86,399.98" class="flow-arrow"/>
    <path d="M 600.00,425.00 L 599.82,424.91 M 599.89,424.91 L 599.82,424.91 L 599.86,424.96" class="flow-arrow"/>
    <path d="M 600.00,450.00 L 599.83,449.89 M 599.90,449.90 L 599.83,449.89 L 599.86,449.95" class="flow-arrow"/>
    <path d="M 600.00,475.00 L 599.84,474.88 M 599.90,474.89 L 599.84,474.88 L 599.87,474.94" class="flow-arrow"/>
    <path d="M 600.00,500.00 L 599.85,499.86 M 599.91,499.88 L 599.85,499.86 L 599.87,499.93" class="flow-arrow"/>
    <path d="M 600.00,525.00 L 599.85,524.85 M 599.92,524.87 L 599.85,524.85 L 599.88,524.92" class="flow-arrow"/>
    <path d="M 600.00,550.00 L 599.86,549.84 M 599.93,549.87 L 599.86,549.84 L 599.88,549.91" class="flow-arrow"/>
    <path d="M 600.00,575.00 L 599.87,574.83 M 599.93,574.86 L 599.87,574.83 L 599.88,574.90" class="flow-arrow"/>
    <path d="M 625.00,25.00 L 624.87,25.17 M 624.88,25.10 L 624.87,25.17 L 624.94,25.14" class="flow-arrow"/>
    <path d="M 625.00,50.00 L 624.86,50.16 M 624.88,50.09 L 624.86,50.16 L 624.93,50.13" class="flow-arrow"/>
    <path d="M 625.00,75.00 L 624.86,75.16 M 624.88,75.09 L 624.86,75.16 L 624.92,75.13" class="flow-arrow"/>
    <path d="M 625.00,100.00 L 624.85,100.15 M 624.87,100.08 L 624.85,100.15 L 624.92,100.12" class="flow-arrow"/>
    <path d="M 625.00,125.00 L 624.84,125.14 M 624.87,125.07 L 624.84,125.14 L 624.91,125.12" class="flow-arrow"/>
    <path d="M 625.00,150.00 L 624.84,150.12 M 624.87,150.06 L 624.84,150.12 L 624.90,150.11" class="flow-arrow"/>
    <path d="M 625.00,175.00 L 624.83,175.11 M 624.86,175.05 L 624.83,175.11 L 624.90,175.10" class="flow-arrow"/>
    <path d="M 625.00,200.00 L 624.82,200.10 M 624.86,200.04 L 624.82,200.10 L 624.89,200.09" class="flow-arrow"/>
    <path d="M 625.00,225.00 L 624.82,225.08 M 624.86,225.03 L 624.82,225.08 L 624.88,225.08" class="flow-arrow"/>
    <path d="M 625.00,250.00 L 624.81,250.06 M 624.86,250.01 L 624.81,250.06 L 624.88,250.07" class="flow-arrow"/>
    <path d="M 625.00,275.00 L 624.81,275.04 M 624.86,275.00 L 624.81,275.04 L 624.87,275.06" class="flow-arrow"/>
    <path d="M 625.00,300.00 L 624.80,300.02 M 624.86,299.98 L 624.80,300.02 L 624.86,300.04" class="flow-arrow"/>
    <path d="M 625.00,325.00 L 624.80,325.00 M 624.86,324.97 L 624.80,325.00 L 624.86,325.03" class="flow-arrow"/>
    <path d="M 625.00,350.00 L 624.80,349.97 M 624.87,349.95 L 624.80,349.97 L 624.86,350.01" class="flow-arrow"/>
    <path d="M 625.00,375.00 L 624.81,374.95 M 624.87,374.94 L 624.81,374.95 L 624.86,375.00" class="flow-arrow"/>
    <path d="M 625.00,400.00 L 624.81,399.93 M 624.88,399.92 L 624.81,399.93 L 624.86,399.98" class="flow-arrow"/>
    <path d="M 625.00,425.00 L 624.82,424.91 M 624.88,424.91 L 624.82,424.91 L 624.86,424.97" class="flow-arrow"/>
    <path d="M 625.00,450.00 L 624.82,449.90 M 624.89,449.90 L 624.82,449.90 L 624.86,449.95" class="flow-arrow"/>
    <path d="M 625.00,475.00 L 624.83,474.88 M 624.90,474.89 L 624.83,474.88 L 624.86,474.94" class="flow-arrow"/>
    <path d="M 625.00,500.00 L 624.84,499.87 M 624.91,499.88 L 624.84,499.87 L 624.87,499.93" class="flow-arrow"/>
    <path d="M 625.00,525.00 L 624.84,524.86 M 624.91,524.88 L 624.84,524.86 L 624.87,524.92" class="flow-arrow"/>
    <path d="M 625.00,550.00 L 624.85,549.85 M 624.92,549.87 L 624.85,549.85 L 624.87,549.92" class="flow-arrow"/>
    <path d="M 625.00,575.00 L 624.86,574.84 M 624.93,574.87 L 624.86,574.84 L 624.88,574.91" class="flow-arrow"/>
    <path d="M 650.00,25.00 L 649.86,25.16 M 649.88,25.09 L 649.86,25.16 L 649.93,25.14" class="flow-arrow"/>
    <path d="M 650.00,50.00 L 649.85,50.16 M 649.88,50.09 L 649.85,50.16 L 649.92,50.13" class="flow-arrow"/>
    <path d="M 650.00,75.00 L 649.85,75.15 M 649.87,75.08 L 649.85,75.15 L 649.92,75.13" class="flow-arrow"/>
    <path d="M 650.00,100.00 L 649.84,100.14 M 649.87,100.07 L 649.84,100.14 L 649.91,100.12" class="flow-arrow"/>
    <path d="M 650.00,125.00 L 649.84,125.13 M 649.87,125.06 L 649.84,125.13 L 649.90,125.11" class="flow-arrow"/>
    <path d="M 650.00,150.00 L 649.83,150.12 M 649.86,150.06 L 649.83,150.12 L 649.90,150.11" class="flow-arrow"/>
    <path d="M 650.00,175.00 L 649.82,175.10 M 649.86,175.05 L 649.82,175.10 L 649.89,175.10" class="flow-arrow"/>
    <path d="M 650.00,200.00 L 649.82,200.09 M 649.86,200.03 L 649.82,200.09 L 649.88,200.09" class="flow-arrow"/>
    <path d="M 650.00,225.00 L 649.81,225.07 M 649.86,225.02 L 649.81,225.07 L 649.88,225.08" class="flow-arrow"/>
    <path d="M 650.00,250.00 L 649.80,250.05 M 649.86,250.01 L 649.80,250.05 L 649.87,250.07" class="flow-arrow"/>
    <path d="M 650.00,275.00 L 649.80,275.04 M 649.86,274.99 L 649.80,275.04 L 649.87,275.05" class="flow-arrow"/>
    <path d="M 650.00,300.00 L 649.80,300.02 M 649.86,299.98 L 649.80,300.02 L 649.86,300.04" class="flow-arrow"/>
    <path d="M 650.00,325.00 L 649.80,325.00 M 649.86,324.97 L 649.80,325.00 L 649.86,325.03" class="flow-arrow"/>
    <path d="M 650.00,350.00 L 649.80,349.97 M 649.86,349.95 L 649.80,349.97 L 649.86,350.01" class="flow-arrow"/>
    <path d="M 650.00,375.00 L 649.80,374.96 M 649.87,374.94 L 649.80,374.96 L 649.85,375.00" class="flow-arrow"/>
    <path d="M 650.00,400.00 L 649.81,399.94 M 649.87,399.93 L 649.81,399.94 L 649.85,399.98" class="flow-arrow"/>
    <path d="M 650.00,425.00 L 649.81,424.92 M 649.88,424.91 L 649.81,424.92 L 649.86,424.97" class="flow-arrow"/>
    <path d="M 650.00,450.00 L 649.82,449.90 M 649.89,449.90 L 649.82,449.90 L 649.86,449.96" class="flow-arrow"/>
    <path d="M 650.00,475.00 L 649.82,474.89 M 649.89,474.90 L 649.82,474.89 L 649.86,474.95" class="flow-arrow"/>
    <path d="M 650.00,500.00 L 649.83,499.88 M 649.90,499.89 L 649.83,499.88 L 649.86,499.94" class="flow-arrow"/>
    <path d="M 650.00,525.00 L 649.84,524.86 M 649.91,524.88 L 649.84,524.86 L 649.87,524.93" class="flow-arrow"/>
    <path d="M 650.00,550.00 L 649.84,549.85 M 649.91,549.88 L 649.84,549.85 L 649.87,549.92" class="flow-arrow"/>
    <path d="M 650.00,575.00 L 649.85,574.85 M 649.92,574.87 L 649.85,574.85 L 649.87,574.91" class="flow-arrow"/>
    <path d="M 675.00,25.00 L 674.85,25.16 M 674.87,25.09 L 674.85,25.16 L 674.92,25.13" class="flow-arrow"/>
    <path d="M 675.00,50.00 L 674.85,50.15 M 674.87,50.08 L 674.85,50.15 L 674.91,50.13" class="flow-arrow"/>
    <path d="M 675.00,75.00 L 674.84,75.14 M 674.87,75.07 L 674.84,75.14 L 674.91,75.12" class="flow-arrow"/>
    <path d="M 675.00,100.00 L 674.83,100.13 M 674.86,100.07 L 674.83,100.13 L 674.90,100.12" class="flow-arrow"/>
    <path d="M 675.00,125.00 L 674.83,125.12 M 674.86,125.06 L 674.83,125.12 L 674.90,125.11" class="flow-arrow"/>
    <path d="M 675.00,150.00 L 674.82,150.11 M 674.86,150.05 L 674.82,150.11 L 674.89,150.10" class="flow-arrow"/>
    <path d="M 675.00,175.00 L 674.81,175.10 M 674.86,175.04 L 674.81,175.10 L 674.88,175.09" class="flow-arrow"/>
    <path d="M 675.00,200.00 L 674.81,200.08 M 674.85,200.03 L 674.81,200.08 L 674.88,200.09" class="flow-arrow"/>
    <path d="M 675.00,225.00 L 674.80,225.07 M 674.85,225.02 L 674.80,225.07 L 674.87,225.08" class="flow-arrow"/>
    <path d="M 675.00,250.00 L 674.80,250.05 M 674.85,250.00 L 674.80,250.05 L 674.87,250.06" class="flow-arrow"/>
    <path d="M 675.00,275.00 L 674.80,275.03 M 674.85,274.99 L 674.80,275.03 L 674.86,275.05" class="flow-arrow"/>
    <path d="M 675.00,300.00 L 674.79,300.01 M 674.85,299.98 L 674.79,300.01 L 674.86,300.04" class="flow-arrow"/>
    <path d="M 675.00,325.00 L 674.79,324.99 M 674.86,324.96 L 674.79,324.99 L 674.86,325.03" class="flow-arrow"/>
    <path d="M 675.00,350.00 L 674.80,349.98 M 674.86,349.95 L 674.80,349.98 L 674.85,350.01" class="flow-arrow"/>
    <path d="M 675.00,375.00 L 674.80,374.96 M 674.86,374.94 L 674.80,374.96 L 674.85,375.00" class="flow-arrow"/>
    <path d="M 675.00,400.00 L 674.80,399.94 M 674.87,399.93 L 674.80,399.94 L 674.85,399.99" class="flow-arrow"/>
    <path d="M 675.00,425.00 L 674.81,424.92 M 674.88,424.92 L 674.81,424.92 L 674.85,424.98" class="flow-arrow"/>
    <path d="M 675.00,450.00 L 674.81,449.91 M 674.88,449.91 L 674.81,449.91 L 674.85,449.96" class="flow-arrow"/>
    <path d="M 675.00,475.00 L 674.82,474.89 M 674.89,474.90 L 674.82,474.89 L 674.86,474.95" class="flow-arrow"/>
    <path d="M 675.00,500.00 L 674.82,499.88 M 674.89,499.89 L 674.82,499.88 L 674.86,499.94" class="flow-arrow"/>
    <path d="M 675.00,525.00 L 674.83,524.87 M 674.90,524.88 L 674.83,524.87 L 674.86,524.94" class="flow-arrow"/>
    <path d="M 675.00,550.00 L 674.84,549.86 M 674.91,549.88 L 674.84,549.86 L 674.86,549.93" class="flow-arrow"/>
    <path d="M 675.00,575.00 L 674.84,574.85 M 674.91,574.87 L 674.84,574.85 L 674.87,574.92" class="flow-arrow"/>
    <path d="M 700.00,25.00 L 699.84,25.15 M 699.87,25.08 L 699.84,25.15 L 699.91,25.13" class="flow-arrow"/>
    <path d="M 700.00,50.00 L 699.84,50.14 M 699.87,50.08 L 699.84,50.14 L 699.91,50.12" class="flow-arrow"/>
    <path d="M 700.00,75.00 L 699.83,75.13 M 699.86,75.07 L 699.83,75.13 L 699.90,75.12" class="flow-arrow"/>
    <path d="M 700.00,100.00 L 699.83,100.12 M 699.86,100.06 L 699.83,100.12 L 699.90,100.11" class="flow-arrow"/>
    <path d="M 700.00,125.00 L 699.82,125.11 M 699.86,125.05 L 699.82,125.11 L 699.89,125.11" class="flow-arrow"/>
    <path d="M 700.00,150.00 L 699.81,150.10 M 699.86,150.04 L 699.81,150.10 L 699.89,150.10" class="flow-arrow"/>
    <path d="M 700.00,175.00 L 699.81,175.09 M 699.85,175.03 L 699.81,175.09 L 699.88,175.09" class="flow-arrow"/>
    <path d="M 700.00,200.00 L 699.80,200.08 M 699.85,200.02 L 699.80,200.08 L 699.87,200.08" class="flow-arrow"/>
    <path d="M 700.00,225.00 L 699.80,225.06 M 699.85,225.01 L 699.80,225.06 L 699.87,225.07" class="flow-arrow"/>
    <path d="M 700.00,250.00 L 699.80,250.04 M 699.85,250.00 L 699.80,250.04 L 699.86,250.06" class="flow-arrow"/>
    <path d="M 700.00,275.00 L 699.79,275.03 M 699.85,274.99 L 699.79,275.03 L 699.86,275.05" class="flow-arrow"/>
    <path d="M 700.00,300.00 L 699.79,300.01 M 699.85,299.98 L 699.79,300.01 L 699.86,300.04" class="flow-arrow"/>
    <path d="M 700.00,325.00 L 699.79,324.99 M 699.86,324.96 L 699.79,324.99 L 699.85,325.03" class="flow-arrow"/>
    <path d="M 700.00,350.00 L 699.79,349.98 M 699.86,349.95 L 699.79,349.98 L 699.85,350.01" class="flow-arrow"/>
    <path d="M 700.00,375.00 L 699.79,374.96 M 699.86,374.94 L 699.79,374.96 L 699.85,375.00" class="flow-arrow"/>
    <path d="M 700.00,400.00 L 699.80,399.94 M 699.87,399.93 L 699.80,399.94 L 699.85,399.99" class="flow-arrow"/>
    <path d="M 700.00,425.00 L 699.80,424.93 M 699.87,424.92 L 699.80,424.93 L 699.85,424.98" class="flow-arrow"/>
    <path d="M 700.00,450.00 L 699.81,449.91 M 699.88,449.91 L 699.81,449.91 L 699.85,449.97" class="flow-arrow"/>
    <path d="M 700.00,475.00 L 699.81,474.90 M 699.88,474.90 L 699.81,474.90 L 699.85,474.96" class="flow-arrow"/>
    <path d="M 700.00,500.00 L 699.82,499.89 M 699.89,499.89 L 699.82,499.89 L 699.86,499.95" class="flow-arrow"/>
    <path d="M 700.00,525.00 L 699.82,524.88 M 699.90,524.89 L 699.82,524.88 L 699.86,524.94" class="flow-arrow"/>
    <path d="M 700.00,550.00 L 699.83,549.87 M 699.90,549.88 L 699.83,549.87 L 699.86,549.93" class="flow-arrow"/>
    <path d="M 700.00,575.00 L 699.84,574.86 M 699.91,574.88 L 699.84,574.86 L 699.86,574.93" class="flow-arrow"/>
    <path d="M 725.00,25.00 L 724.84,25.14 M 724.86,25.08 L 724.84,25.14 L 724.91,25.13" class="flow-arrow"/>
    <path d="M 725.00,50.00 L 724.83,50.14 M 724.86,50.07 L 724.83,50.14 L 724.90,50.12" class="flow-arrow"/>
    <path d="M 725.00,75.00 L 724.83,75.13 M 724.86,75.06 L 724.83,75.13 L 724.90,75.12" class="flow-arrow"/>
    <path d="M 725.00,100.00 L 724.82,100.12 M 724.86,100.06 L 724.82,100.12 L 724.89,100.11" class="flow-arrow"/>
    <path d="M 725.00,125.00 L 724.81,125.11 M 724.85,125.05 L 724.81,125.11 L 724.89,125.10" class="flow-arrow"/>
    <path d="M 725.00,150.00 L 724.81,150.10 M 724.85,150.04 L 724.81,150.10 L 724.88,150.10" class="flow-arrow"/>
    <path d="M 725.00,175.00 L 724.80,175.08 M 724.85,175.03 L 724.80,175.08 L 724.88,175.09" class="flow-arrow"/>
    <path d="M 725.00,200.00 L 724.80,200.07 M 724.85,200.02 L 724.80,200.07 L 724.87,200.08" class="flow-arrow"/>
    <path d="M 725.00,225.00 L 724.80,225.06 M 724.85,225.01 L 724.80,225.06 L 724.87,225.07" class="flow-arrow"/>
    <path d="M 725.00,250.00 L 724.79,250.04 M 724.85,250.00 L 724.79,250.04 L 724.86,250.06" class="flow-arrow"/>
    <path d="M 725.00,275.00 L 724.79,275.03 M 724.85,274.99 L 724.79,275.03 L 724.86,275.05" class="flow-arrow"/>
    <path d="M 725.00,300.00 L 724.79,300.01 M 724.85,299.97 L 724.79,300.01 L 724.85,300.04" class="flow-arrow"/>
    <path d="M 725.00,325.00 L 724.79,324.99 M 724.85,324.96 L 724.79,324.99 L 724.85,325.03" class="flow-arrow"/>
    <path d="M 725.00,350.00 L 724.79,349.98 M 724.86,349.95 L 724.79,349.98 L 724.85,350.02" class="flow-arrow"/>
    <path d="M 725.00,375.00 L 724.79,374.96 M 724.86,374.94 L 724.79,374.96 L 724.85,375.00" class="flow-arrow"/>
    <path d="M 725.00,400.00 L 724.80,399.95 M 724.86,399.93 L 724.80,399.95 L 724.85,399.99" class="flow-arrow"/>
    <path d="M 725.00,425.00 L 724.80,424.93 M 724.87,424.92 L 724.80,424.93 L 724.85,424.98" class="flow-arrow"/>
    <path d="M 725.00,450.00 L 724.80,449.92 M 724.87,449.91 L 724.80,449.92 L 724.85,449.97" class="flow-arrow"/>
    <path d="M 725.00,475.00 L 724.81,474.90 M 724.88,474.90 L 724.81,474.90 L 724.85,474.96" class="flow-arrow"/>
    <path d="M 725.00,500.00 L 724.81,499.89 M 724.89,499.90 L 724.81,499.89 L 724.85,499.95" class="flow-arrow"/>
    <path d="M 725.00,525.00 L 724.82,524.88 M 724.89,524.89 L 724.82,524.88 L 724.86,524.94" class="flow-arrow"/>
    <path d="M 725.00,550.00 L 724.82,549.87 M 724.90,549.88 L 724.82,549.87 L 724.86,549.94" class="flow-arrow"/>
    <path d="M 725.00,575.00 L 724.83,574.86 M 724.90,574.88 L 724.83,574.86 L 724.86,574.93" class="flow-arrow"/>
    <path d="M 750.00,25.00 L 749.83,25.14 M 749.86,25.07 L 749.83,25.14 L 749.90,25.12" class="flow-arrow"/>
    <path d="M 750.00,50.00 L 749.83,50.13 M 749.86,50.07 L 749.83,50.13 L 749.90,50.12" class="flow-arrow"/>
    <path d="M 750.00,75.00 L 749.82,75.12 M 749.86,75.06 L 749.82,75.12 L 749.89,75.11" class="flow-arrow"/>
    <path d="M 750.00,100.00 L 749.82,100.11 M 749.85,100.05 L 749.82,100.11 L 749.89,100.11" class="flow-arrow"/>
    <path d="M 750.00,125.00 L 749.81,125.10 M 749.85,125.04 L 749.81,125.10 L 749.88,125.10" class="flow-arrow"/>
    <path d="M 750.00,150.00 L 749.81,150.09 M 749.85,150.03 L 749.81,150.09 L 749.88,150.09" class="flow-arrow"/>
    <path d="M 750.00,175.00 L 749.80,175.08 M 749.85,175.03 L 749.80,175.08 L 749.87,175.08" class="flow-arrow"/>
    <path d="M 750.00,200.00 L 749.80,200.07 M 749.85,200.02 L 749.80,200.07 L 749.87,200.08" class="flow-arrow"/>
    <path d="M 750.00,225.00 L 749.79,225.05 M 749.85,225.01 L 749.79,225.05 L 749.86,225.07" class="flow-arrow"/>
    <path d="M 750.00,250.00 L 749.79,250.04 M 749.85,249.99 L 749.79,250.04 L 749.86,250.06" class="flow-arrow"/>
    <path d="M 750.00,275.00 L 749.79,275.02 M 749.85,274.98 L 749.79,275.02 L 749.86,275.05" class="flow-arrow"/>
    <path d="M 750.00,300.00 L 749.79,300.01 M 749.85,299.97 L 749.79,300.01 L 749.85,300.04" class="flow-arrow"/>
    <path d="M 750.00,325.00 L 749.79,324.99 M 749.85,324.96 L 749.79,324.99 L 749.85,325.03" class="flow-arrow"/>
    <path d="M 750.00,350.00 L 749.79,349.98 M 749.86,349.95 L 749.79,349.98 L 749.85,350.02" class="flow-arrow"/>
    <path d="M 750.00,375.00 L 749.79,374.96 M 749.86,374.94 L 749.79,374.96 L 749.85,375.01" class="flow-arrow"/>
    <path d="M 750.00,400.00 L 749.79,399.95 M 749.86,399.93 L 749.79,399.95 L 749.85,399.99" class="flow-arrow"/>
    <path d="M 750.00,425.00 L 749.80,424.93 M 749.87,424.92 L 749.80,424.93 L 749.85,424.98" class="flow-arrow"/>
    <path d="M 750.00,450.00 L 749.80,449.92 M 749.87,449.92 L 749.80,449.92 L 749.85,449.98" class="flow-arrow"/>
    <path d="M 750.00,475.00 L 749.80,474.91 M 749.88,474.91 L 749.80,474.91 L 749.85,474.97" class="flow-arrow"/>
    <path d="M 750.00,500.00 L 749.81,499.90 M 749.88,499.90 L 749.81,499.90 L 749.85,499.96" class="flow-arrow"/>
    <path d="M 750.00,525.00 L 749.81,524.89 M 749.89,524.89 L 749.81,524.89 L 749.85,524.95" class="flow-arrow"/>
    <path d="M 750.00,550.00 L 749.82,549.88 M 749.89,549.89 L 749.82,549.88 L 749.86,549.94" class="flow-arrow"/>
    <path d="M 750.00,575.00 L 749.83,574.87 M 749.90,574.88 L 749.83,574.87 L 749.86,574.93" class="flow-arrow"/>
    <path d="M 775.00,25.00 L 774.83,25.13 M 774.86,25.07 L 774.83,25.13 L 774.90,25.12" class="flow-arrow"/>
    <path d="M 775.00,50.00 L 774.82,50.13 M 774.86,50.06 L 774.82,50.13 L 774.89,50.11" class="flow-arrow"/>
    <path d="M 775.00,75.00 L 774.82,75.12 M 774.85,75.05 L 774.82,75.12 L 774.89,75.11" class="flow-arrow"/>
    <path d="M 775.00,100.00 L 774.81,100.11 M 774.85,100.05 L 774.81,100.11 L 774.88,100.10" class="flow-arrow"/>
    <path d="M 775.00,125.00 L 774.81,125.10 M 774.85,125.04 L 774.81,125.10 L 774.88,125.10" class="flow-arrow"/>
    <path d="M 775.00,150.00 L 774.80,150.09 M 774.85,150.03 L 774.80,150.09 L 774.87,150.09" class="flow-arrow"/>
    <path d="M 775.00,175.00 L 774.80,175.07 M 774.85,175.02 L 774.80,175.07 L 774.87,175.08" class="flow-arrow"/>
    <path d="M 775.00,200.00 L 774.79,200.06 M 774.85,200.01 L 774.79,200.06 L 774.86,200.07" class="flow-arrow"/>
    <path d="M 775.00,225.00 L 774.79,225.05 M 774.85,225.00 L 774.79,225.05 L 774.86,225.07" class="flow-arrow"/>
    <path d="M 775.00,250.00 L 774.79,250.04 M 774.85,249.99 L 774.79,250.04 L 774.86,250.06" class="flow-arrow"/>
    <path d="M 775.00,275.00 L 774.79,275.02 M 774.85,274.98 L 774.79,275.02 L 774.85,275.05" class="flow-arrow"/>
    <path d="M 775.00,300.00 L 774.79,300.01 M 774.85,299.97 L 774.79,300.01 L 774.85,300.04" class="flow-arrow"/>
    <path d="M 775.00,325.00 L 774.79,324.99 M 774.85,324.96 L 774.79,324.99 L 774.85,325.03" class="flow-arrow"/>
    <path d="M 775.00,350.00 L 774.79,349.98 M 774.85,349.95 L 774.79,349.98 L 774.85,350.02" class="flow-arrow"/>
    <path d="M 775.00,375.00 L 774.79,374.96 M 774.86,374.94 L 774.79,374.96 L 774.85,375.01" class="flow-arrow"/>
    <path d="M 775.00,400.00 L 774.79,399.95 M 774.86,399.93 L 774.79,399.95 L 774.85,400.00" class="flow-arrow"/>
    <path d="M 775.00,425.00 L 774.79,424.94 M 774.86,424.93 L 774.79,424.94 L 774.85,424.99" class="flow-arrow"/>
    <path d="M 775.00,450.00 L 774.80,449.93 M 774.87,449.92 L 774.80,449.93 L 774.85,449.98" class="flow-arrow"/>
    <path d="M 775.00,475.00 L 774.80,474.91 M 774.87,474.91 L 774.80,474.91 L 774.85,474.97" class="flow-arrow"/>
    <path d="M 775.00,500.00 L 774.81,499.90 M 774.88,499.90 L 774.81,499.90 L 774.85,499.96" class="flow-arrow"/>
    <path d="M 775.00,525.00 L 774.81,524.89 M 774.88,524.90 L 774.81,524.89 L 774.85,524.95" class="flow-arrow"/>
    <path d="M 775.00,550.00 L 774.82,549.88 M 774.89,549.89 L 774.82,549.88 L 774.85,549.95" class="flow-arrow"/>
    <path d="M 775.00,575.00 L 774.82,574.87 M 774.89,574.88 L 774.82,574.87 L 774.86,574.94" class="flow-arrow"/>
  </g>
</svg>